<?xml version="1.0" standalone="no"?>
<!DOCTYPE svg PUBLIC "-//W3C//DTD SVG 1.1//EN" "http://www.w3.org/Graphics/SVG/1.1/DTD/svg11.dtd" >
<svg xmlns="http://www.w3.org/2000/svg">
<metadata>Generated by IcoMoon</metadata>
<defs>
<font id="icomoon" horiz-adv-x="1024">
<font-face units-per-em="1024" ascent="960" descent="-64" />
<missing-glyph horiz-adv-x="1024" />
<glyph unicode="&#x20;" horiz-adv-x="512" d="" />
<glyph unicode="&#xe900;" glyph-name="icon-android" d="M783.36 197.12c0-20.48-15.36-40.96-40.96-40.96h-460.8c-20.48 0-40.96 15.36-40.96 40.96v409.6h537.6v-409.6h5.12zM414.72 816.64c0-5.12 0-10.24-5.12-10.24v0c-5.12 0-10.24 0-10.24 5.12l-61.44 112.64c0 5.12 0 10.24 5.12 10.24v0c5.12 0 10.24 0 10.24-5.12l61.44-112.64zM624.64 811.52c0-5.12-5.12-5.12-10.24-5.12v0c-5.12 0-5.12 10.24-5.12 10.24l61.44 107.52c0 5.12 10.24 5.12 10.24 5.12v0c5.12 0 5.12-10.24 5.12-10.24l-61.44-107.52zM921.6 309.76c0-30.72-25.6-56.32-56.32-56.32v0c-30.72 0-56.32 25.6-56.32 56.32v250.88c0 30.72 25.6 56.32 56.32 56.32v0c30.72 0 56.32-25.6 56.32-56.32v-250.88zM220.16 309.76c0-30.72-25.6-56.32-56.32-56.32v0c-30.72 0-56.32 25.6-56.32 56.32v250.88c0 30.72 25.6 56.32 56.32 56.32v0c30.72 0 56.32-25.6 56.32-56.32v-250.88zM471.040 17.92c0-30.72-25.6-56.32-56.32-56.32v0c-30.72 0-56.32 25.6-56.32 56.32v250.88c0 30.72 25.6 56.32 56.32 56.32v0c30.72 0 56.32-25.6 56.32-56.32v-250.88zM670.72 17.92c0-30.72-25.6-56.32-56.32-56.32v0c-30.72 0-56.32 25.6-56.32 56.32v250.88c0 30.72 25.6 56.32 56.32 56.32v0c30.72 0 56.32-25.6 56.32-56.32v-250.88zM512 878.080c-138.24 0-256-107.52-271.36-245.76h542.72c-15.36 138.24-128 245.76-271.36 245.76v0zM389.12 729.6c-10.24 0-20.48 10.24-20.48 20.48s10.24 20.48 20.48 20.48c10.24 0 20.48-10.24 20.48-20.48 5.12-10.24-5.12-20.48-20.48-20.48v0zM634.88 729.6c-10.24 0-20.48 10.24-20.48 20.48s10.24 20.48 20.48 20.48c10.24 0 20.48-10.24 20.48-20.48 5.12-10.24-5.12-20.48-20.48-20.48z" />
<glyph unicode="&#xe901;" glyph-name="icon-angle-down" d="M512 345.6c-15.36 0-25.6 5.12-35.84 15.36l-204.8 204.8c-20.48 20.48-20.48 51.2 0 71.68s51.2 20.48 71.68 0l168.96-168.96 168.96 168.96c20.48 20.48 51.2 20.48 71.68 0s20.48-51.2 0-71.68l-204.8-204.8c-10.24-10.24-20.48-15.36-35.84-15.36z" />
<glyph unicode="&#xe902;" glyph-name="icon-angle-left" d="M614.4 192c-15.36 0-25.6 5.12-35.84 15.36l-204.8 204.8c-20.48 20.48-20.48 51.2 0 71.68l204.8 204.8c20.48 20.48 51.2 20.48 71.68 0s20.48-51.2 0-71.68l-168.96-168.96 168.96-168.96c20.48-20.48 20.48-51.2 0-71.68-10.24-10.24-20.48-15.36-35.84-15.36z" />
<glyph unicode="&#xe903;" glyph-name="icon-angle-right" d="M409.6 192c-15.36 0-25.6 5.12-35.84 15.36-20.48 20.48-20.48 51.2 0 71.68l168.96 168.96-168.96 168.96c-20.48 20.48-20.48 51.2 0 71.68s51.2 20.48 71.68 0l204.8-204.8c20.48-20.48 20.48-51.2 0-71.68l-204.8-204.8c-10.24-10.24-20.48-15.36-35.84-15.36z" />
<glyph unicode="&#xe904;" glyph-name="icon-angle-up" d="M716.8 294.4c-15.36 0-25.6 5.12-35.84 15.36l-168.96 168.96-168.96-168.96c-20.48-20.48-51.2-20.48-71.68 0s-20.48 51.2 0 71.68l204.8 204.8c20.48 20.48 51.2 20.48 71.68 0l204.8-204.8c20.48-20.48 20.48-51.2 0-71.68-10.24-10.24-20.48-15.36-35.84-15.36z" />
<glyph unicode="&#xe905;" glyph-name="icon-apple" d="M906.24 176.64c-15.36-35.84-30.72-66.56-51.2-92.16-25.6-40.96-51.2-66.56-66.56-81.92-25.6-25.6-56.32-35.84-87.040-35.84-20.48 0-51.2 5.12-81.92 20.48-30.72 10.24-61.44 20.48-87.040 20.48s-56.32-5.12-87.040-20.48c-30.72-10.24-56.32-20.48-76.8-20.48-30.72 0-61.44 10.24-87.040 40.96-20.48 15.36-40.96 46.080-71.68 81.92-30.72 40.96-56.32 92.16-76.8 148.48s-30.72 112.64-30.72 168.96c0 66.56 15.36 122.88 40.96 168.96 20.48 35.84 51.2 66.56 87.040 87.040s81.92 35.84 122.88 40.96c25.6 0 56.32-5.12 92.16-20.48s61.44-20.48 71.68-20.48c10.24 0 35.84 10.24 81.92 25.6 46.080 10.24 81.92 15.36 112.64 15.36 81.92-5.12 143.36-40.96 184.32-97.28-71.68-46.080-107.52-107.52-107.52-184.32 0-61.44 25.6-112.64 66.56-153.6 20.48-20.48 40.96-35.84 66.56-46.080-5.12-15.36-10.24-30.72-15.36-46.080v0zM716.8 913.92c0-46.080-15.36-92.16-51.2-138.24-40.96-51.2-92.16-76.8-148.48-76.8v20.48c0 46.080 20.48 97.28 56.32 138.24 20.48 20.48 40.96 35.84 66.56 51.2s51.2 25.6 76.8 25.6v-20.48z" />
<glyph unicode="&#xe906;" glyph-name="icon-backwards" d="M460.8 89.6c-15.36 0-25.6 5.12-35.84 15.36l-307.2 307.2c-20.48 20.48-20.48 51.2 0 71.68l307.2 307.2c15.36 15.36 35.84 20.48 56.32 10.24 20.48-5.12 30.72-25.6 30.72-46.080v-614.4c0-20.48-10.24-40.96-30.72-46.080-5.12-5.12-15.36-5.12-20.48-5.12zM225.28 448l184.32-184.32v368.64l-184.32-184.32zM870.4 89.6c-15.36 0-25.6 5.12-35.84 15.36l-307.2 307.2c-20.48 20.48-20.48 51.2 0 71.68l307.2 307.2c15.36 15.36 35.84 20.48 56.32 10.24 20.48-5.12 30.72-25.6 30.72-46.080v-614.4c0-20.48-10.24-40.96-30.72-46.080-5.12-5.12-15.36-5.12-20.48-5.12zM634.88 448l184.32-184.32v368.64l-184.32-184.32z" />
<glyph unicode="&#xe907;" glyph-name="icon-bluetooth" d="M517.12-12.8c-5.12 0-10.24 0-15.36 5.12-20.48 5.12-35.84 25.6-35.84 46.080v291.84l-122.88-117.76-71.68 76.8 174.080 163.84-179.2 168.96 71.68 71.68 122.88-117.76v281.6c0 20.48 15.36 40.96 30.72 46.080 20.48 5.12 40.96 0 56.32-15.36l199.68-220.16c25.6-15.36 25.6-51.2 5.12-66.56l-153.6-143.36 153.6-148.48c20.48-20.48 20.48-51.2 5.12-71.68l-199.68-230.4c-10.24-15.36-25.6-20.48-40.96-20.48zM568.32 340.48v-163.84l76.8 92.16-76.8 71.68zM568.32 724.48v-158.72l76.8 71.68-76.8 87.040z" />
<glyph unicode="&#xe908;" glyph-name="icon-bookmark" horiz-adv-x="975" d="M780.19-29.867l-292.571 297.448-292.571-297.448v760.686c0 43.886 34.133 82.895 82.895 92.648h409.6c48.762 0 92.648-43.886 92.648-92.648v-760.686zM487.619 404.114l195.048-199.924v521.752h-390.095c0 0 0 0 0 0v-516.876l195.048 195.048z" />
<glyph unicode="&#xe909;" glyph-name="icon-brochure" d="M768-12.8h-512c-56.32 0-102.4 46.080-102.4 102.4v716.8c0 56.32 46.080 102.4 102.4 102.4h512c56.32 0 102.4-46.080 102.4-102.4v-716.8c0-56.32-46.080-102.4-102.4-102.4zM256 806.4v-716.8h512v716.8h-512zM348.16 826.88h102.4v-798.72h-102.4v798.72z" />
<glyph unicode="&#xe90a;" glyph-name="icon-calculator" d="M424.96 473.6c0-28.277-22.923-51.2-51.2-51.2s-51.2 22.923-51.2 51.2c0 28.277 22.923 51.2 51.2 51.2s51.2-22.923 51.2-51.2zM558.080 473.6c0-28.277-22.923-51.2-51.2-51.2s-51.2 22.923-51.2 51.2c0 28.277 22.923 51.2 51.2 51.2s51.2-22.923 51.2-51.2zM696.32 473.6c0-28.277-22.923-51.2-51.2-51.2s-51.2 22.923-51.2 51.2c0 28.277 22.923 51.2 51.2 51.2s51.2-22.923 51.2-51.2zM768-12.8h-512c-61.44 0-102.4 40.96-102.4 102.4v716.8c0 61.44 40.96 102.4 102.4 102.4h512c56.32 0 102.4-46.080 102.4-102.4v-716.8c0-61.44-40.96-102.4-102.4-102.4zM256 806.4v-716.8h512v716.8h-512zM204.8 714.24h614.4v-102.4h-614.4v102.4zM424.96 345.6c0-28.277-22.923-51.2-51.2-51.2s-51.2 22.923-51.2 51.2c0 28.277 22.923 51.2 51.2 51.2s51.2-22.923 51.2-51.2zM558.080 345.6c0-28.277-22.923-51.2-51.2-51.2s-51.2 22.923-51.2 51.2c0 28.277 22.923 51.2 51.2 51.2s51.2-22.923 51.2-51.2zM696.32 345.6c0-28.277-22.923-51.2-51.2-51.2s-51.2 22.923-51.2 51.2c0 28.277 22.923 51.2 51.2 51.2s51.2-22.923 51.2-51.2zM424.96 217.6c0-28.277-22.923-51.2-51.2-51.2s-51.2 22.923-51.2 51.2c0 28.277 22.923 51.2 51.2 51.2s51.2-22.923 51.2-51.2zM558.080 217.6c0-28.277-22.923-51.2-51.2-51.2s-51.2 22.923-51.2 51.2c0 28.277 22.923 51.2 51.2 51.2s51.2-22.923 51.2-51.2zM696.32 217.6c0-28.277-22.923-51.2-51.2-51.2s-51.2 22.923-51.2 51.2c0 28.277 22.923 51.2 51.2 51.2s51.2-22.923 51.2-51.2z" />
<glyph unicode="&#xe90b;" glyph-name="icon-calendar" d="M757.76-64h-491.52c-61.44 0-112.64 51.2-112.64 117.76v701.44h716.8v-701.44c0-66.56-51.2-117.76-112.64-117.76zM256 652.8v-599.040c0-5.12 5.12-15.36 10.24-15.36h491.52c5.12 0 10.24 10.24 10.24 15.36v599.040h-512zM179.2 550.4h665.6v-102.4h-665.6v102.4zM409.6 330.24c0-28.277-22.923-51.2-51.2-51.2s-51.2 22.923-51.2 51.2c0 28.277 22.923 51.2 51.2 51.2s51.2-22.923 51.2-51.2zM563.2 330.24c0-28.277-22.923-51.2-51.2-51.2s-51.2 22.923-51.2 51.2c0 28.277 22.923 51.2 51.2 51.2s51.2-22.923 51.2-51.2zM716.8 330.24c0-28.277-22.923-51.2-51.2-51.2s-51.2 22.923-51.2 51.2c0 28.277 22.923 51.2 51.2 51.2s51.2-22.923 51.2-51.2zM409.6 176.64c0-28.277-22.923-51.2-51.2-51.2s-51.2 22.923-51.2 51.2c0 28.277 22.923 51.2 51.2 51.2s51.2-22.923 51.2-51.2zM563.2 176.64c0-28.277-22.923-51.2-51.2-51.2s-51.2 22.923-51.2 51.2c0 28.277 22.923 51.2 51.2 51.2s51.2-22.923 51.2-51.2zM716.8 176.64c0-28.277-22.923-51.2-51.2-51.2s-51.2 22.923-51.2 51.2c0 28.277 22.923 51.2 51.2 51.2s51.2-22.923 51.2-51.2zM358.4 693.76c-30.72 0-51.2 20.48-51.2 51.2v66.56c0 30.72 20.48 51.2 51.2 51.2s51.2-20.48 51.2-51.2v-66.56c0-30.72-20.48-51.2-51.2-51.2zM665.6 693.76c-30.72 0-51.2 20.48-51.2 51.2v66.56c0 30.72 20.48 51.2 51.2 51.2s51.2-20.48 51.2-51.2v-66.56c0-30.72-20.48-51.2-51.2-51.2z" />
<glyph unicode="&#xe90c;" glyph-name="icon-camera" d="M819.2 38.4h-614.4c-61.44 0-102.4 40.96-102.4 102.4v409.6c0 61.44 40.96 102.4 102.4 102.4h614.4c61.44 0 102.4-40.96 102.4-102.4v-409.6c0-61.44-40.96-102.4-102.4-102.4zM204.8 550.4v-409.6h614.4c0 0 0 0 0 0v409.6h-614.4zM322.56 576l-81.92 51.2 112.64 179.2c15.36 30.72 56.32 51.2 87.040 51.2h143.36c35.84 0 66.56-15.36 87.040-46.080l112.64-179.2-87.040-56.32-107.52 179.2h-143.36l-122.88-179.2zM512 181.76c-92.16 0-163.84 71.68-163.84 163.84s71.68 163.84 163.84 163.84 163.84-71.68 163.84-163.84-71.68-163.84-163.84-163.84zM512 407.040c-35.84 0-61.44-25.6-61.44-61.44s25.6-61.44 61.44-61.44 61.44 25.6 61.44 61.44-25.6 61.44-61.44 61.44z" />
<glyph unicode="&#xe90d;" glyph-name="icon-car" d="M76.8 550.4h870.4v-102.4h-870.4v102.4zM1024 140.8h-1024v286.72l153.6 363.52c5.12 5.12 46.080 66.56 128 66.56h460.8c81.92 0 122.88-61.44 128-66.56l5.12-10.24 148.48-353.28v-286.72zM102.4 243.2h819.2v163.84l-138.24 327.68c-5.12 5.12-20.48 20.48-40.96 20.48h-460.8c-20.48 0-35.84-15.36-40.96-20.48l-138.24-327.68v-163.84zM844.8 345.6c0-42.415-34.385-76.8-76.8-76.8s-76.8 34.385-76.8 76.8c0 42.415 34.385 76.8 76.8 76.8s76.8-34.385 76.8-76.8zM332.8 345.6c0-42.415-34.385-76.8-76.8-76.8s-76.8 34.385-76.8 76.8c0 42.415 34.385 76.8 76.8 76.8s76.8-34.385 76.8-76.8zM1024 550.4c0-28.277-22.923-51.2-51.2-51.2s-51.2 22.923-51.2 51.2c0 28.277 22.923 51.2 51.2 51.2s51.2-22.923 51.2-51.2zM102.4 550.4c0-28.277-22.923-51.2-51.2-51.2s-51.2 22.923-51.2 51.2c0 28.277 22.923 51.2 51.2 51.2s51.2-22.923 51.2-51.2zM204.8 69.12c0-56.32-46.080-102.4-102.4-102.4v0c-56.32 0-102.4 46.080-102.4 102.4v92.16h204.8v-92.16zM1024 69.12c0-56.32-46.080-102.4-102.4-102.4v0c-56.32 0-102.4 46.080-102.4 102.4v92.16h204.8v-92.16z" />
<glyph unicode="&#xe90e;" glyph-name="icon-car2" d="M76.8 550.4h870.4v-102.4h-870.4v102.4zM1024 140.8h-1024v286.72l153.6 363.52c5.12 5.12 46.080 66.56 128 66.56h460.8c81.92 0 122.88-61.44 128-66.56l5.12-10.24 148.48-353.28v-286.72zM102.4 243.2h819.2v163.84l-138.24 327.68c-5.12 5.12-20.48 20.48-40.96 20.48h-460.8c-20.48 0-35.84-15.36-40.96-20.48l-138.24-327.68v-163.84zM844.8 345.6c0-42.415-34.385-76.8-76.8-76.8s-76.8 34.385-76.8 76.8c0 42.415 34.385 76.8 76.8 76.8s76.8-34.385 76.8-76.8zM332.8 345.6c0-42.415-34.385-76.8-76.8-76.8s-76.8 34.385-76.8 76.8c0 42.415 34.385 76.8 76.8 76.8s76.8-34.385 76.8-76.8zM1024 550.4c0-28.277-22.923-51.2-51.2-51.2s-51.2 22.923-51.2 51.2c0 28.277 22.923 51.2 51.2 51.2s51.2-22.923 51.2-51.2zM102.4 550.4c0-28.277-22.923-51.2-51.2-51.2s-51.2 22.923-51.2 51.2c0 28.277 22.923 51.2 51.2 51.2s51.2-22.923 51.2-51.2zM204.8 69.12c0-56.32-46.080-102.4-102.4-102.4v0c-56.32 0-102.4 46.080-102.4 102.4v92.16h204.8v-92.16zM1024 69.12c0-56.32-46.080-102.4-102.4-102.4v0c-56.32 0-102.4 46.080-102.4 102.4v92.16h204.8v-92.16z" />
<glyph unicode="&#xe90f;" glyph-name="icon-car-rental" d="M76.8 499.2h870.4v-102.4h-870.4v102.4zM1024 89.6h-1024v286.72l153.6 363.52c5.12 5.12 46.080 66.56 128 66.56v-102.4c-20.48 0-35.84-15.36-40.96-20.48l-138.24-327.68v-163.84h819.2v163.84l-138.24 332.8c-5.12 5.12-20.48 20.48-40.96 20.48v102.4c81.92 0 122.88-61.44 128-66.56l5.12-10.24 148.48-358.4v-286.72zM844.8 294.4c0-42.415-34.385-76.8-76.8-76.8s-76.8 34.385-76.8 76.8c0 42.415 34.385 76.8 76.8 76.8s76.8-34.385 76.8-76.8zM332.8 294.4c0-42.415-34.385-76.8-76.8-76.8s-76.8 34.385-76.8 76.8c0 42.415 34.385 76.8 76.8 76.8s76.8-34.385 76.8-76.8zM1024 499.2c0-28.277-22.923-51.2-51.2-51.2s-51.2 22.923-51.2 51.2c0 28.277 22.923 51.2 51.2 51.2s51.2-22.923 51.2-51.2zM102.4 499.2c0-28.277-22.923-51.2-51.2-51.2s-51.2 22.923-51.2 51.2c0 28.277 22.923 51.2 51.2 51.2s51.2-22.923 51.2-51.2zM204.8 33.28c0-46.080-46.080-87.040-102.4-87.040v0c-56.32 0-102.4 40.96-102.4 87.040v76.8h204.8v-76.8zM1024 33.28c0-46.080-46.080-87.040-102.4-87.040v0c-56.32 0-102.4 40.96-102.4 87.040v76.8h204.8v-76.8zM476.16 862.72c20.48-20.48 20.48-51.2 0-71.68s-51.2-20.48-71.68 0-20.48 51.2 0 71.68 51.2 20.48 71.68 0zM527.36 919.040c-51.2 51.2-128 51.2-179.2 0s-51.2-128 0-179.2c35.84-35.84 87.040-46.080 128-35.84l25.6-25.6 46.080 5.12-5.12-46.080 20.48-15.36 46.080 5.12-5.12-46.080 15.36-15.36 71.68 10.24 10.24 71.68-143.36 143.36c15.36 40.96 5.12 92.16-30.72 128v0z" />
<glyph unicode="&#xe910;" glyph-name="icon-car-used" d="M76.8 499.2h870.4v-102.4h-870.4v102.4zM1024 89.6h-1024v286.72l153.6 363.52c5.12 5.12 46.080 66.56 128 66.56v-102.4c-20.48 0-35.84-15.36-40.96-20.48l-138.24-327.68v-163.84h819.2v163.84l-138.24 332.8c-5.12 5.12-20.48 20.48-40.96 20.48v102.4c81.92 0 122.88-61.44 128-66.56l5.12-10.24 148.48-358.4v-286.72zM844.8 294.4c0-42.415-34.385-76.8-76.8-76.8s-76.8 34.385-76.8 76.8c0 42.415 34.385 76.8 76.8 76.8s76.8-34.385 76.8-76.8zM332.8 294.4c0-42.415-34.385-76.8-76.8-76.8s-76.8 34.385-76.8 76.8c0 42.415 34.385 76.8 76.8 76.8s76.8-34.385 76.8-76.8zM1024 499.2c0-28.277-22.923-51.2-51.2-51.2s-51.2 22.923-51.2 51.2c0 28.277 22.923 51.2 51.2 51.2s51.2-22.923 51.2-51.2zM102.4 499.2c0-28.277-22.923-51.2-51.2-51.2s-51.2 22.923-51.2 51.2c0 28.277 22.923 51.2 51.2 51.2s51.2-22.923 51.2-51.2zM204.8 33.28c0-46.080-46.080-87.040-102.4-87.040v0c-56.32 0-102.4 40.96-102.4 87.040v76.8h204.8v-76.8zM1024 33.28c0-46.080-46.080-87.040-102.4-87.040v0c-56.32 0-102.4 40.96-102.4 87.040v76.8h204.8v-76.8zM512 586.24c-30.72 0-51.2 20.48-51.2 51.2v235.52c0 30.72 20.48 51.2 51.2 51.2s51.2-20.48 51.2-51.2v-235.52c0-30.72-20.48-51.2-51.2-51.2zM629.76 704h-235.52c-30.72 0-51.2 20.48-51.2 51.2s20.48 51.2 51.2 51.2h235.52c30.72 0 51.2-20.48 51.2-51.2s-20.48-51.2-51.2-51.2z" />
<glyph unicode="&#xe911;" glyph-name="icon-checkbox-checked" d="M665.6 89.6h-409.6c-61.44 0-102.4 40.96-102.4 102.4v409.6c0 61.44 40.96 102.4 102.4 102.4h409.6c61.44 0 102.4-40.96 102.4-102.4v-409.6c0-61.44-40.96-102.4-102.4-102.4zM256 601.6v-409.6h409.6c0 0 0 0 0 0v409.6h-409.6zM450.56 284.16c0 0 0 0 0 0-15.36 0-25.6 5.12-35.84 15.36l-107.52 112.64c-20.48 20.48-20.48 51.2 0 71.68s51.2 20.48 71.68 0l71.68-76.8 327.68 327.68c20.48 20.48 51.2 20.48 71.68 0s20.48-51.2 0-71.68l-363.52-363.52c-10.24-10.24-20.48-15.36-35.84-15.36z" />
<glyph unicode="&#xe912;" glyph-name="icon-checkbox-unchecked" d="M716.8 140.8h-409.6c-61.44 0-102.4 40.96-102.4 102.4v409.6c0 61.44 40.96 102.4 102.4 102.4h409.6c61.44 0 102.4-40.96 102.4-102.4v-409.6c0-61.44-40.96-102.4-102.4-102.4zM307.2 652.8v-409.6h409.6c0 0 0 0 0 0v409.6h-409.6z" />
<glyph unicode="&#xe913;" glyph-name="icon-chevron-down" d="M512 294.4c-15.36 0-25.6 5.12-35.84 15.36l-204.8 204.8c-20.48 20.48-20.48 51.2 0 71.68s51.2 20.48 71.68 0l168.96-168.96 168.96 168.96c20.48 20.48 51.2 20.48 71.68 0s20.48-51.2 0-71.68l-204.8-204.8c-10.24-10.24-20.48-15.36-35.84-15.36z" />
<glyph unicode="&#xe914;" glyph-name="icon-chevron-left" d="M614.4 192c-15.36 0-25.6 5.12-35.84 15.36l-204.8 204.8c-20.48 20.48-20.48 51.2 0 71.68l204.8 204.8c20.48 20.48 51.2 20.48 71.68 0s20.48-51.2 0-71.68l-168.96-168.96 168.96-168.96c20.48-20.48 20.48-51.2 0-71.68-10.24-10.24-20.48-15.36-35.84-15.36z" />
<glyph unicode="&#xe915;" glyph-name="icon-chevron-right" d="M404.48 192c-15.36 0-25.6 5.12-35.84 15.36-20.48 20.48-20.48 51.2 0 71.68l168.96 168.96-97.28 102.4-71.68 66.56c-20.48 20.48-20.48 51.2-5.12 71.68 20.48 20.48 51.2 20.48 71.68 5.12l76.8-71.68 133.12-138.24c20.48-20.48 20.48-51.2 0-71.68l-204.8-204.8c-10.24-10.24-20.48-15.36-35.84-15.36z" />
<glyph unicode="&#xe916;" glyph-name="icon-chevron-up" d="M716.8 294.4c-15.36 0-25.6 5.12-35.84 15.36l-168.96 168.96-168.96-168.96c-20.48-20.48-51.2-20.48-71.68 0s-20.48 51.2 0 71.68l204.8 204.8c20.48 20.48 51.2 20.48 71.68 0l204.8-204.8c20.48-20.48 20.48-51.2 0-71.68-10.24-10.24-20.48-15.36-35.84-15.36z" />
<glyph unicode="&#xe917;" glyph-name="icon-cog" d="M512 89.6c-199.68 0-358.4 158.72-358.4 358.4s158.72 358.4 358.4 358.4c199.68 0 358.4-158.72 358.4-358.4s-158.72-358.4-358.4-358.4zM512 704c-143.36 0-256-112.64-256-256s112.64-256 256-256 256 112.64 256 256-112.64 256-256 256zM517.12-12.8c-40.96 0-76.8 5.12-107.52 10.24l25.6 97.28c20.48 0 51.2-5.12 76.8-5.12l5.12-102.4c0 0 0 0 0 0zM686.080 23.040l-40.96 92.16c25.6 10.24 51.2 25.6 76.8 46.080l61.44-81.92c-25.6-25.6-61.44-40.96-97.28-56.32zM250.88 69.12c-30.72 20.48-61.44 46.080-87.040 76.8l76.8 66.56c20.48-20.48 40.96-40.96 66.56-61.44l-56.32-81.92zM906.24 207.36l-87.040 51.2c15.36 25.6 30.72 51.2 35.84 81.92l97.28-30.72c-10.24-35.84-25.6-71.68-46.080-102.4zM76.8 294.4c-10.24 35.84-20.48 71.68-25.6 112.64l102.4 10.24c5.12-30.72 10.24-61.44 20.48-87.040l-97.28-35.84zM870.4 473.6c0 30.72-10.24 61.44-15.36 87.040l97.28 30.72c10.24-35.84 20.48-76.8 20.48-112.64l-102.4-5.12zM168.96 550.4l-97.28 30.72c10.24 35.84 25.6 71.68 46.080 107.52l87.040-51.2c-15.36-30.72-30.72-61.44-35.84-87.040zM788.48 678.4c-20.48 20.48-40.96 46.080-66.56 61.44l61.44 81.92c30.72-20.48 61.44-51.2 81.92-76.8l-76.8-66.56zM291.84 729.6l-61.44 81.92c30.72 25.6 61.44 46.080 97.28 61.44l40.96-92.16c-25.6-15.36-51.2-30.72-76.8-51.2zM599.040 796.16c-25.6 5.12-56.32 10.24-87.040 10.24h-15.36v102.4c40.96 0 87.040-5.12 128-15.36l-25.6-97.28z" />
<glyph unicode="&#xe918;" glyph-name="icon-compare" d="M302.080 412.16c-10.24 0-25.6 5.12-35.84 15.36l-66.56 61.44-133.12 128c-10.24 10.24-15.36 20.48-15.36 35.84s5.12 25.6 15.36 35.84l199.68 194.56c20.48 20.48 51.2 20.48 71.68 0s20.48-51.2 0-71.68l-163.84-158.72 158.72-153.6c25.6-15.36 25.6-51.2 5.12-71.68-10.24-10.24-20.48-15.36-35.84-15.36zM849.92 601.6h-675.84c-30.72 0-51.2 20.48-51.2 51.2s20.48 51.2 51.2 51.2h675.84c30.72 0 51.2-20.48 51.2-51.2s-20.48-51.2-51.2-51.2zM670.72 2.56c-15.36 0-25.6 5.12-35.84 15.36-20.48 20.48-20.48 56.32 0 71.68l66.56 61.44 92.16 92.16-163.84 158.72c-20.48 20.48-20.48 51.2 0 71.68s51.2 20.48 71.68 0l199.68-194.56c10.24-10.24 15.36-20.48 15.36-35.84s-5.12-25.6-15.36-35.84l-199.68-189.44c-5.12-10.24-20.48-15.36-30.72-15.36zM829.44 192h-675.84c-30.72 0-51.2 20.48-51.2 51.2s20.48 51.2 51.2 51.2h675.84c30.72 0 51.2-20.48 51.2-51.2s-20.48-51.2-51.2-51.2z" />
<glyph unicode="&#xe919;" glyph-name="icon-consumptions" d="M512 268.8c-87.040 0-153.6 66.56-153.6 153.6s66.56 153.6 153.6 153.6 153.6-66.56 153.6-153.6-66.56-153.6-153.6-153.6zM512 473.6c-30.72 0-51.2-20.48-51.2-51.2s20.48-51.2 51.2-51.2 51.2 20.48 51.2 51.2c0 30.72-20.48 51.2-51.2 51.2zM614.4 448c-15.36 0-25.6 5.12-35.84 15.36-20.48 20.48-20.48 51.2 0 71.68l102.4 102.4c20.48 20.48 51.2 20.48 71.68 0s20.48-51.2 0-71.68l-102.4-102.4c-10.24-10.24-20.48-15.36-35.84-15.36zM829.44-12.8h-634.88l-15.36 15.36c-174.080 194.56-163.84 384-163.84 409.6 0 281.6 220.16 496.64 496.64 496.64s496.64-215.040 496.64-496.64c0-30.72 10.24-220.16-163.84-409.6l-15.36-15.36zM240.64 89.6h547.84c138.24 163.84 122.88 317.44 122.88 317.44v5.12c-5.12 220.16-179.2 394.24-399.36 394.24s-394.24-174.080-394.24-394.24v-5.12c0-5.12-15.36-153.6 122.88-317.44z" />
<glyph unicode="&#xe91a;" glyph-name="icon-desktop" d="M256 499.2h512v307.2h-512v-307.2zM204.8 908.8h614.4c30.72 0 51.2-20.48 51.2-51.2v-512c0-30.72-20.48-51.2-51.2-51.2h-614.4c-30.72 0-51.2 20.48-51.2 51.2v512c0 30.72 20.48 51.2 51.2 51.2zM512 345.6c30.72 0 51.2 20.48 51.2 51.2s-20.48 51.2-51.2 51.2-51.2-20.48-51.2-51.2c0-30.72 20.48-51.2 51.2-51.2zM614.4 89.6h-204.8c-30.72 0-51.2 20.48-51.2 51.2s20.48 51.2 51.2 51.2h204.8c30.72 0 51.2-20.48 51.2-51.2s-20.48-51.2-51.2-51.2zM512 89.6c-30.72 0-51.2 20.48-51.2 51.2v153.6c0 30.72 20.48 51.2 51.2 51.2s51.2-20.48 51.2-51.2v-153.6c0-30.72-20.48-51.2-51.2-51.2z" />
<glyph unicode="&#xe91b;" glyph-name="icon-download-alt" horiz-adv-x="1075" d="M563.2 217.6c-15.36 0-25.6 5.12-35.84 15.36l-153.6 153.6c-20.48 20.48-20.48 51.2 0 71.68s51.2 20.48 71.68 0l117.76-117.76 117.76 117.76c20.48 20.48 51.2 20.48 71.68 0s20.48-51.2 0-71.68l-153.6-153.6c-10.24-10.24-20.48-15.36-35.84-15.36zM563.2 263.68c-30.72 0-51.2 20.48-51.2 51.2v512c0 30.72 20.48 51.2 51.2 51.2s51.2-20.48 51.2-51.2v-512c0-30.72-20.48-51.2-51.2-51.2zM1013.76-12.8h-921.6c-30.72 0-51.2 20.48-51.2 51.2s20.48 51.2 51.2 51.2h921.6c30.72 0 51.2-20.48 51.2-51.2s-20.48-51.2-51.2-51.2z" />
<glyph unicode="&#xe91c;" glyph-name="icon-email" d="M819.2 140.8h-614.4c-51.2 0-102.4 51.2-102.4 102.4v512h819.2v-512c0-51.2-51.2-102.4-102.4-102.4zM204.8 652.8v-409.6h614.4v409.6h-614.4zM512 366.080l-384 220.16 51.2 92.16 332.8-189.44 332.8 189.44 51.2-92.16z" />
<glyph unicode="&#xe91d;" glyph-name="icon-emission" d="M783.36 38.4h-496.64c-148.48 0-276.48 128-281.6 286.72-10.24 112.64 46.080 230.4 143.36 291.84 35.84 138.24 153.6 240.64 286.72 240.64 97.28 0 184.32-51.2 235.52-138.24 15.36 0 25.6 5.12 40.96 5.12 112.64 0 194.56-92.16 199.68-209.92 76.8-51.2 122.88-143.36 112.64-245.76-10.24-128-117.76-230.4-240.64-230.4zM435.2 755.2c-92.16 0-174.080-76.8-189.44-184.32l-5.12-25.6-25.6-10.24c-71.68-35.84-117.76-117.76-107.52-204.8 5.12-102.4 87.040-189.44 179.2-189.44h496.64c61.44 0 128 51.2 138.24 138.24 5.12 71.68-25.6 133.12-81.92 158.72l-30.72 10.24v61.44c0 61.44-40.96 112.64-97.28 112.64-15.36 0-30.72-5.12-46.080-10.24l-51.2-25.6-20.48 51.2c-25.6 71.68-87.040 117.76-158.72 117.76z" />
<glyph unicode="&#xe91e;" glyph-name="icon-envelope-alt" d="M819.2 140.8h-609.28c-61.44 0-107.52 46.080-107.52 107.52v506.88h824.32v-506.88c0-61.44-46.080-107.52-107.52-107.52zM204.8 652.8v-404.48c0 0 5.12-5.12 5.12-5.12h609.28c0 0 5.12 5.12 5.12 5.12v404.48h-619.52zM512 366.080l-384 220.16 51.2 92.16 332.8-189.44 332.8 189.44 51.2-92.16z" />
<glyph unicode="&#xe91f;" glyph-name="icon-exclamation" d="M512-12.8c-256 0-460.8 204.8-460.8 460.8s204.8 460.8 460.8 460.8c256 0 460.8-204.8 460.8-460.8s-204.8-460.8-460.8-460.8zM512 806.4c-199.68 0-358.4-158.72-358.4-358.4s158.72-358.4 358.4-358.4c199.68 0 358.4 158.72 358.4 358.4s-158.72 358.4-358.4 358.4zM512 345.6v0c-30.72 0-51.2 20.48-51.2 51.2v204.8c0 30.72 20.48 51.2 51.2 51.2v0c30.72 0 51.2-20.48 51.2-51.2v-204.8c0-30.72-20.48-51.2-51.2-51.2zM563.2 243.2c0-28.277-22.923-51.2-51.2-51.2s-51.2 22.923-51.2 51.2c0 28.277 22.923 51.2 51.2 51.2s51.2-22.923 51.2-51.2z" />
<glyph unicode="&#xe920;" glyph-name="icon-external-link" d="M870.4 38.4h-716.8c-30.72 0-51.2 20.48-51.2 51.2v716.8c0 30.72 20.48 51.2 51.2 51.2h256c30.72 0 51.2-20.48 51.2-51.2s-20.48-51.2-51.2-51.2h-204.8v-614.4h614.4v204.8c0 30.72 20.48 51.2 51.2 51.2s51.2-20.48 51.2-51.2v-256c0-30.72-20.48-51.2-51.2-51.2zM870.4 483.84c-30.72 0-51.2 20.48-51.2 51.2v220.16h-204.8c-30.72 0-51.2 20.48-51.2 51.2s20.48 51.2 51.2 51.2h256c30.72 0 51.2-20.48 51.2-51.2v-271.36c0-30.72-20.48-51.2-51.2-51.2zM512 396.8c-15.36 0-25.6 5.12-35.84 15.36-20.48 20.48-20.48 51.2 0 71.68l271.36 271.36c20.48 20.48 51.2 20.48 71.68 0s20.48-51.2 0-71.68l-271.36-271.36c-10.24-10.24-20.48-15.36-35.84-15.36z" />
<glyph unicode="&#xe921;" glyph-name="icon-facebook" d="M578.56 586.24v81.92c0 35.84 10.24 56.32 66.56 56.32h71.68v133.12h-107.52c-138.24 0-189.44-92.16-189.44-189.44v-81.92h-112.64v-138.24h107.52v-409.6h163.84v409.6h117.76l15.36 138.24h-133.12z" />
<glyph unicode="&#xe922;" glyph-name="icon-facetime-video" d="M819.2 192c-15.36 0-25.6 5.12-35.84 15.36l-204.8 204.8c-20.48 20.48-20.48 51.2 0 71.68l204.8 204.8c15.36 15.36 35.84 20.48 56.32 10.24 20.48-5.12 30.72-25.6 30.72-46.080v-409.6c0-20.48-10.24-40.96-30.72-46.080-5.12-5.12-15.36-5.12-20.48-5.12zM686.080 448l81.92-81.92v163.84l-81.92-81.92zM563.2 192h-409.6c-30.72 0-51.2 20.48-51.2 51.2v409.6c0 30.72 20.48 51.2 51.2 51.2h409.6c30.72 0 51.2-20.48 51.2-51.2v-409.6c0-30.72-20.48-51.2-51.2-51.2zM204.8 294.4h307.2v307.2h-307.2v-307.2z" />
<glyph unicode="&#xe923;" glyph-name="icon-file-alt" d="M757.76-12.8h-491.52c-61.44 0-112.64 51.2-112.64 117.76v686.080c0 66.56 51.2 117.76 112.64 117.76h343.040l261.12-286.72v-517.12c0-66.56-51.2-117.76-112.64-117.76zM266.24 806.4c-5.12 0-10.24-10.24-10.24-15.36v-686.080c0-5.12 5.12-15.36 10.24-15.36h491.52c5.12 0 10.24 10.24 10.24 15.36v476.16l-199.68 225.28h-302.080zM819.2 550.4h-358.4v307.2h102.4v-204.8h256z" />
<glyph unicode="&#xe924;" glyph-name="icon-file-pdf" d="M757.76-12.8h-491.52c-61.44 0-112.64 51.2-112.64 117.76v686.080c0 66.56 51.2 117.76 112.64 117.76h343.040l261.12-286.72v-517.12c0-66.56-51.2-117.76-112.64-117.76zM266.24 806.4c-5.12 0-10.24-10.24-10.24-15.36v-686.080c0-5.12 5.12-15.36 10.24-15.36h491.52c5.12 0 10.24 10.24 10.24 15.36v476.16l-199.68 225.28h-302.080zM819.2 550.4h-358.4v307.2h102.4v-204.8h256zM378.88 396.8c35.84 0 56.32-25.6 56.32-56.32s-20.48-51.2-56.32-51.2h-30.72v-46.080h-40.96v153.6h71.68zM394.24 340.48c0 15.36-10.24 25.6-25.6 25.6h-20.48v-46.080h15.36c20.48 0 30.72 5.12 30.72 20.48zM450.56 396.8h66.56c51.2 0 71.68-30.72 71.68-76.8s-20.48-76.8-71.68-76.8h-66.56v153.6zM491.52 366.080v-92.16h15.36c25.6 0 35.84 15.36 35.84 46.080s-10.24 46.080-35.84 46.080h-15.36zM650.24 243.2v56.32h61.44v30.72h-61.44v35.84h66.56v30.72h-107.52v-153.6h40.96z" />
<glyph unicode="&#xe925;" glyph-name="icon-finance" d="M424.96 473.6c0-28.277-22.923-51.2-51.2-51.2s-51.2 22.923-51.2 51.2c0 28.277 22.923 51.2 51.2 51.2s51.2-22.923 51.2-51.2zM558.080 473.6c0-28.277-22.923-51.2-51.2-51.2s-51.2 22.923-51.2 51.2c0 28.277 22.923 51.2 51.2 51.2s51.2-22.923 51.2-51.2zM696.32 473.6c0-28.277-22.923-51.2-51.2-51.2s-51.2 22.923-51.2 51.2c0 28.277 22.923 51.2 51.2 51.2s51.2-22.923 51.2-51.2zM768-12.8h-512c-61.44 0-102.4 40.96-102.4 102.4v716.8c0 61.44 40.96 102.4 102.4 102.4h512c56.32 0 102.4-46.080 102.4-102.4v-716.8c0-61.44-40.96-102.4-102.4-102.4zM256 806.4v-716.8h512v716.8h-512zM204.8 714.24h614.4v-102.4h-614.4v102.4zM424.96 345.6c0-28.277-22.923-51.2-51.2-51.2s-51.2 22.923-51.2 51.2c0 28.277 22.923 51.2 51.2 51.2s51.2-22.923 51.2-51.2zM558.080 345.6c0-28.277-22.923-51.2-51.2-51.2s-51.2 22.923-51.2 51.2c0 28.277 22.923 51.2 51.2 51.2s51.2-22.923 51.2-51.2zM696.32 345.6c0-28.277-22.923-51.2-51.2-51.2s-51.2 22.923-51.2 51.2c0 28.277 22.923 51.2 51.2 51.2s51.2-22.923 51.2-51.2zM424.96 217.6c0-28.277-22.923-51.2-51.2-51.2s-51.2 22.923-51.2 51.2c0 28.277 22.923 51.2 51.2 51.2s51.2-22.923 51.2-51.2zM558.080 217.6c0-28.277-22.923-51.2-51.2-51.2s-51.2 22.923-51.2 51.2c0 28.277 22.923 51.2 51.2 51.2s51.2-22.923 51.2-51.2zM696.32 217.6c0-28.277-22.923-51.2-51.2-51.2s-51.2 22.923-51.2 51.2c0 28.277 22.923 51.2 51.2 51.2s51.2-22.923 51.2-51.2z" />
<glyph unicode="&#xe926;" glyph-name="icon-fin-calculator" d="M424.96 473.6c0-28.277-22.923-51.2-51.2-51.2s-51.2 22.923-51.2 51.2c0 28.277 22.923 51.2 51.2 51.2s51.2-22.923 51.2-51.2zM558.080 473.6c0-28.277-22.923-51.2-51.2-51.2s-51.2 22.923-51.2 51.2c0 28.277 22.923 51.2 51.2 51.2s51.2-22.923 51.2-51.2zM696.32 473.6c0-28.277-22.923-51.2-51.2-51.2s-51.2 22.923-51.2 51.2c0 28.277 22.923 51.2 51.2 51.2s51.2-22.923 51.2-51.2zM768-12.8h-512c-61.44 0-102.4 40.96-102.4 102.4v716.8c0 61.44 40.96 102.4 102.4 102.4h512c56.32 0 102.4-46.080 102.4-102.4v-716.8c0-61.44-40.96-102.4-102.4-102.4zM256 806.4v-716.8h512v716.8h-512zM204.8 714.24h614.4v-102.4h-614.4v102.4zM424.96 345.6c0-28.277-22.923-51.2-51.2-51.2s-51.2 22.923-51.2 51.2c0 28.277 22.923 51.2 51.2 51.2s51.2-22.923 51.2-51.2zM558.080 345.6c0-28.277-22.923-51.2-51.2-51.2s-51.2 22.923-51.2 51.2c0 28.277 22.923 51.2 51.2 51.2s51.2-22.923 51.2-51.2zM696.32 345.6c0-28.277-22.923-51.2-51.2-51.2s-51.2 22.923-51.2 51.2c0 28.277 22.923 51.2 51.2 51.2s51.2-22.923 51.2-51.2zM424.96 217.6c0-28.277-22.923-51.2-51.2-51.2s-51.2 22.923-51.2 51.2c0 28.277 22.923 51.2 51.2 51.2s51.2-22.923 51.2-51.2zM558.080 217.6c0-28.277-22.923-51.2-51.2-51.2s-51.2 22.923-51.2 51.2c0 28.277 22.923 51.2 51.2 51.2s51.2-22.923 51.2-51.2zM696.32 217.6c0-28.277-22.923-51.2-51.2-51.2s-51.2 22.923-51.2 51.2c0 28.277 22.923 51.2 51.2 51.2s51.2-22.923 51.2-51.2z" />
<glyph unicode="&#xe927;" glyph-name="icon-find-your-match" d="M512-58.88c-256 0-465.92 209.92-465.92 465.92s209.92 465.92 465.92 465.92 465.92-209.92 465.92-465.92c0-256-209.92-465.92-465.92-465.92zM512 770.56c-199.68 0-363.52-163.84-363.52-363.52s163.84-363.52 363.52-363.52 363.52 163.84 363.52 363.52c0 199.68-163.84 363.52-363.52 363.52zM512 207.36c-112.64 0-204.8 76.8-230.4 184.32h-143.36c-30.72 0-51.2 20.48-51.2 51.2s20.48 51.2 51.2 51.2h752.64c30.72 0 51.2-20.48 51.2-51.2s-20.48-51.2-51.2-51.2h-148.48c-25.6-107.52-117.76-184.32-230.4-184.32zM389.12 391.68c20.48-46.080 66.56-81.92 122.88-81.92s102.4 35.84 122.88 81.92h-245.76zM512-64c-30.72 0-51.2 20.48-51.2 51.2v271.36c0 30.72 20.48 51.2 51.2 51.2s51.2-20.48 51.2-51.2v-271.36c0-30.72-20.48-51.2-51.2-51.2z" />
<glyph unicode="&#xe928;" glyph-name="icon-flickr" d="M455.68 417.28c0-56.554-45.846-102.4-102.4-102.4s-102.4 45.846-102.4 102.4c0 56.554 45.846 102.4 102.4 102.4s102.4-45.846 102.4-102.4zM762.88 417.28c0-56.554-45.846-102.4-102.4-102.4s-102.4 45.846-102.4 102.4c0 56.554 45.846 102.4 102.4 102.4s102.4-45.846 102.4-102.4z" />
<glyph unicode="&#xe929;" glyph-name="icon-folder-case" d="M768 89.6h-512c-61.44 0-102.4 40.96-102.4 102.4v563.2h271.36l102.4-153.6h343.040v-409.6c0-61.44-40.96-102.4-102.4-102.4zM256 652.8v-460.8h512c0 0 0 0 0 0v307.2h-291.84l-102.4 153.6h-117.76z" />
<glyph unicode="&#xe92a;" glyph-name="icon-forward" d="M153.6 89.6c-5.12 0-15.36 0-20.48 5.12-20.48 5.12-30.72 25.6-30.72 46.080v614.4c0 20.48 10.24 40.96 30.72 46.080s40.96 5.12 56.32-10.24l307.2-307.2c20.48-20.48 20.48-51.2 0-71.68l-307.2-307.2c-10.24-10.24-20.48-15.36-35.84-15.36zM204.8 632.32v-368.64l184.32 184.32-184.32 184.32zM563.2 89.6c-5.12 0-15.36 0-20.48 5.12-20.48 5.12-30.72 25.6-30.72 46.080v614.4c0 20.48 10.24 40.96 30.72 46.080 20.48 10.24 40.96 5.12 56.32-10.24l307.2-307.2c20.48-20.48 20.48-51.2 0-71.68l-307.2-307.2c-10.24-10.24-20.48-15.36-35.84-15.36zM614.4 632.32v-368.64l184.32 184.32-184.32 184.32z" />
<glyph unicode="&#xe92b;" glyph-name="icon-fuel-type" d="M512-12.8h-512v793.6c0 71.68 46.080 128 102.4 128h307.2c56.32 0 102.4-56.32 102.4-128v-793.6zM102.4 89.6h307.2v691.2c0 10.24-5.12 20.48-5.12 25.6h-296.96c0-5.12-5.12-15.36-5.12-25.6v-691.2zM409.6 806.4v0 0zM860.16 268.8c-87.040 0-153.6 66.56-153.6 153.6s66.56 153.6 153.6 153.6 153.6-66.56 153.6-153.6-66.56-153.6-153.6-153.6zM860.16 473.6c-30.72 0-51.2-20.48-51.2-51.2s20.48-51.2 51.2-51.2 51.2 20.48 51.2 51.2c0 30.72-20.48 51.2-51.2 51.2zM773.12 427.52c-10.24 0-20.48 5.12-30.72 10.24-25.6 15.36-30.72 46.080-15.36 71.68l174.080 245.76c15.36 25.6 46.080 30.72 71.68 15.36s30.72-46.080 15.36-71.68l-174.080-250.88c-10.24-10.24-25.6-20.48-40.96-20.48zM686.080 89.6c-66.56 0-122.88 56.32-122.88 122.88v286.72h-512c-30.72 0-51.2 20.48-51.2 51.2s20.48 51.2 51.2 51.2h527.36c66.56 0 87.040-40.96 87.040-76.8v-312.32c0-10.24 10.24-20.48 20.48-20.48s20.48 10.24 20.48 20.48v209.92c0 30.72 20.48 51.2 51.2 51.2s51.2-20.48 51.2-51.2v-209.92c0-66.56-56.32-122.88-122.88-122.88z" />
<glyph unicode="&#xe92c;" glyph-name="icon-google-plus" d="M325.76 480.589v-111.68h184.96c-7.424-48-55.872-140.608-184.768-140.608-111.168 0-201.92 92.16-201.92 205.76s90.56 205.76 201.728 205.76c63.36 0 105.728-27.008 129.92-50.304l88.448 85.12c-56.768 53.12-130.368 85.12-218.24 85.12-180.288 0.064-325.888-145.856-325.888-325.696s145.664-325.76 325.76-325.76c188.16 0 312.832 132.16 312.832 318.336 0 21.376-2.304 37.76-5.12 53.952h-307.712zM1024 480.589h-93.12v93.12h-93.12v-93.12h-93.056v-93.056h93.12v-93.12h93.44v93.12h92.736v93.056z" />
<glyph unicode="&#xe92d;" glyph-name="icon-heart" d="M512 12.8l-378.88 404.48c-92.16 92.16-97.28 261.12 0 363.52 46.080 46.080 107.52 76.8 168.96 76.8 66.56 0 133.12-25.6 184.32-76.8l25.6-25.6 25.6 25.6c46.080 51.2 107.52 76.8 179.2 76.8s133.12-25.6 179.2-76.8c92.16-92.16 97.28-261.12 0-363.52-56.32-61.44-112.64-122.88-174.080-184.32-56.32-61.44-112.64-117.76-168.96-179.2l-40.96-40.96zM307.2 755.2c0 0 0 0 0 0-40.96 0-71.68-15.36-102.4-46.080v0c-56.32-61.44-56.32-163.84 0-220.16l307.2-322.56c46.080 46.080 92.16 97.28 133.12 143.36 56.32 61.44 112.64 117.76 168.96 179.2 61.44 61.44 61.44 163.84 5.12 220.16-56.32 61.44-153.6 61.44-209.92 0l-97.28-107.52-97.28 107.52c-30.72 30.72-66.56 46.080-107.52 46.080z" />
<glyph unicode="&#xe92e;" glyph-name="icon-hybrid" d="M512-64c-281.6 0-512 230.4-512 512s230.4 512 512 512v0c0 0 5.12 0 5.12 0 276.48 0 506.88-230.4 506.88-512s-230.4-512-512-512zM512 908.8c-256 0-460.8-204.8-460.8-460.8s204.8-460.8 460.8-460.8c256 0 460.8 204.8 460.8 460.8s-204.8 460.8-460.8 460.8c5.12 0 0 0 0 0v0zM686.080 704h-174.080l-184.32-307.2h153.6l-148.48-235.52 384 337.92h-168.96z" />
<glyph unicode="&#xe92f;" glyph-name="icon-info-sign" d="M512-12.8c-256 0-460.8 204.8-460.8 460.8s204.8 460.8 460.8 460.8c256 0 460.8-204.8 460.8-460.8s-204.8-460.8-460.8-460.8zM512 806.4c-199.68 0-358.4-158.72-358.4-358.4s158.72-358.4 358.4-358.4c199.68 0 358.4 158.72 358.4 358.4s-158.72 358.4-358.4 358.4zM512 202.24v0c-30.72 0-51.2 20.48-51.2 51.2v204.8c0 30.72 20.48 51.2 51.2 51.2v0c30.72 0 51.2-20.48 51.2-51.2v-204.8c0-30.72-20.48-51.2-51.2-51.2zM563.2 601.6c0-28.277-22.923-51.2-51.2-51.2s-51.2 22.923-51.2 51.2c0 28.277 22.923 51.2 51.2 51.2s51.2-22.923 51.2-51.2z" />
<glyph unicode="&#xe930;" glyph-name="icon-ins-calculator" d="M424.96 473.6c0-28.277-22.923-51.2-51.2-51.2s-51.2 22.923-51.2 51.2c0 28.277 22.923 51.2 51.2 51.2s51.2-22.923 51.2-51.2zM558.080 473.6c0-28.277-22.923-51.2-51.2-51.2s-51.2 22.923-51.2 51.2c0 28.277 22.923 51.2 51.2 51.2s51.2-22.923 51.2-51.2zM696.32 473.6c0-28.277-22.923-51.2-51.2-51.2s-51.2 22.923-51.2 51.2c0 28.277 22.923 51.2 51.2 51.2s51.2-22.923 51.2-51.2zM768-12.8h-512c-61.44 0-102.4 40.96-102.4 102.4v716.8c0 61.44 40.96 102.4 102.4 102.4h512c56.32 0 102.4-46.080 102.4-102.4v-716.8c0-61.44-40.96-102.4-102.4-102.4zM256 806.4v-716.8h512v716.8h-512zM204.8 714.24h614.4v-102.4h-614.4v102.4zM424.96 345.6c0-28.277-22.923-51.2-51.2-51.2s-51.2 22.923-51.2 51.2c0 28.277 22.923 51.2 51.2 51.2s51.2-22.923 51.2-51.2zM558.080 345.6c0-28.277-22.923-51.2-51.2-51.2s-51.2 22.923-51.2 51.2c0 28.277 22.923 51.2 51.2 51.2s51.2-22.923 51.2-51.2zM696.32 345.6c0-28.277-22.923-51.2-51.2-51.2s-51.2 22.923-51.2 51.2c0 28.277 22.923 51.2 51.2 51.2s51.2-22.923 51.2-51.2zM424.96 217.6c0-28.277-22.923-51.2-51.2-51.2s-51.2 22.923-51.2 51.2c0 28.277 22.923 51.2 51.2 51.2s51.2-22.923 51.2-51.2zM558.080 217.6c0-28.277-22.923-51.2-51.2-51.2s-51.2 22.923-51.2 51.2c0 28.277 22.923 51.2 51.2 51.2s51.2-22.923 51.2-51.2zM696.32 217.6c0-28.277-22.923-51.2-51.2-51.2s-51.2 22.923-51.2 51.2c0 28.277 22.923 51.2 51.2 51.2s51.2-22.923 51.2-51.2z" />
<glyph unicode="&#xe931;" glyph-name="icon-insurance" d="M768 755.2v-384c0-25.6-25.6-61.44-76.8-102.4s-112.64-76.8-179.2-112.64c-66.56 35.84-128 76.8-179.2 112.64-51.2 40.96-76.8 76.8-76.8 102.4v384h512zM855.040 857.6h-686.080c-5.12 0-15.36-5.12-15.36-15.36v-471.040c0-61.44 35.84-122.88 117.76-184.32 56.32-46.080 128-87.040 199.68-128 10.24-5.12 20.48-15.36 35.84-20.48 5.12 0 5.12-5.12 10.24-5.12v0c5.12 0 5.12 0 10.24 5.12 10.24 5.12 20.48 15.36 35.84 20.48 71.68 40.96 143.36 81.92 199.68 128 76.8 61.44 117.76 122.88 117.76 184.32v471.040c-10.24 10.24-20.48 15.36-25.6 15.36v0zM665.6 448h-307.2c-30.72 0-51.2 20.48-51.2 51.2s20.48 51.2 51.2 51.2h307.2c30.72 0 51.2-20.48 51.2-51.2s-20.48-51.2-51.2-51.2zM512 294.4c-30.72 0-51.2 20.48-51.2 51.2v307.2c0 30.72 20.48 51.2 51.2 51.2s51.2-20.48 51.2-51.2v-307.2c0-30.72-20.48-51.2-51.2-51.2z" />
<glyph unicode="&#xe932;" glyph-name="icon-ipod" d="M307.2 440.32v7.68h409.6v-7.68 314.88h-409.6v-314.88zM256 857.6h512c28.277 0 51.2-22.923 51.2-51.2v-716.8c0-28.277-22.923-51.2-51.2-51.2h-512c-28.277 0-51.2 22.923-51.2 51.2v716.8c0 28.277 22.923 51.2 51.2 51.2zM512 115.2c70.692 0 128 57.308 128 128s-57.308 128-128 128c-70.692 0-128-57.308-128-128s57.308-128 128-128zM512 171.52c-39.588 0-71.68 32.092-71.68 71.68s32.092 71.68 71.68 71.68c39.588 0 71.68-32.092 71.68-71.68s-32.092-71.68-71.68-71.68z" />
<glyph unicode="&#xe933;" glyph-name="icon-key" d="M916.48-33.28l-245.76 40.96 10.24 92.16-71.68 10.24 10.24 71.68-46.080 5.12-40.96 51.2c-66.56-51.2-158.72-40.96-209.92 20.48l-179.2 199.68c-97.28 122.88-81.92 296.96 35.84 399.36 112.64 97.28 286.72 87.040 384-25.6 5.12-5.12 15.36-10.24 15.36-20.48l163.84-194.56c51.2-66.56 46.080-153.6-10.24-209.92l199.68-245.76-15.36-194.56zM783.36 94.72l40.96-10.24 5.12 46.080-40.96 46.080-5.12-81.92zM721.92 197.12l61.44-10.24-56.32 66.56-5.12-56.32zM624.64 289.28l87.040-5.12-117.76 138.24 71.68 61.44c15.36 15.36 20.48 46.080 0 71.68l-174.080 204.8c-61.44 71.68-174.080 81.92-250.88 15.36-35.84-30.72-56.32-71.68-61.44-117.76 0-46.080 15.36-92.16 46.080-133.12l174.080-199.68c20.48-20.48 51.2-20.48 71.68-5.12l71.68 61.44 81.92-92.16zM440.32 642.56c0-45.243-36.677-81.92-81.92-81.92s-81.92 36.677-81.92 81.92c0 45.243 36.677 81.92 81.92 81.92s81.92-36.677 81.92-81.92z" />
<glyph unicode="&#xe934;" glyph-name="icon-laptop" d="M814.080 294.4h-614.4c-30.72 0-51.2 20.48-51.2 51.2v409.6c0 30.72 20.48 51.2 51.2 51.2h614.4c30.72 0 51.2-20.48 51.2-51.2v-409.6c0-30.72-20.48-51.2-51.2-51.2zM250.88 396.8h512v307.2h-512v-307.2zM455.68 192h-348.16c-30.72 0-51.2-20.48-51.2-51.2s20.48-51.2 51.2-51.2h819.2c30.72 0 51.2 20.48 51.2 51.2s-20.48 51.2-51.2 51.2h-368.64c0-30.72-20.48-51.2-51.2-51.2s-51.2 20.48-51.2 51.2z" />
<glyph unicode="&#xe935;" glyph-name="icon-link" d="M332.8 401.92c-40.96 0-81.92 15.36-107.52 46.080l-148.48 143.36c-30.72 30.72-46.080 71.68-46.080 112.64s20.48 76.8 46.080 102.4l71.68 71.68c30.72 30.72 71.68 46.080 112.64 46.080s76.8-20.48 102.4-46.080l143.36-143.36c30.72-30.72 46.080-71.68 46.080-112.64s-20.48-76.8-46.080-102.4l-71.68-71.68c-25.6-30.72-61.44-46.080-102.4-46.080zM256 821.76c-10.24 0-25.6-5.12-35.84-15.36l-71.68-71.68c-15.36-10.24-15.36-25.6-15.36-30.72 0-15.36 5.12-30.72 15.36-40.96l148.48-143.36c0 0 0 0 5.12-5.12 10.24-15.36 46.080-15.36 56.32 5.12l71.68 71.68c20.48 10.24 20.48 25.6 20.48 30.72 0 15.36-5.12 30.72-15.36 40.96l-143.36 143.36c-10.24 15.36-25.6 15.36-35.84 15.36 5.12 0 0 0 0 0zM762.88-33.28c-40.96 0-81.92 15.36-107.52 46.080l-143.36 143.36c-30.72 30.72-46.080 71.68-46.080 112.64s20.48 76.8 46.080 102.4l71.68 71.68c30.72 30.72 71.68 46.080 112.64 46.080s76.8-20.48 102.4-46.080l143.36-143.36c30.72-30.72 46.080-71.68 46.080-112.64s-20.48-76.8-46.080-102.4l-71.68-71.68c-25.6-25.6-61.44-46.080-107.52-46.080 5.12 0 5.12 0 0 0zM691.2 386.56c-15.36 0-25.6-5.12-35.84-15.36l-71.68-71.68c-15.36-10.24-15.36-25.6-15.36-30.72 0-15.36 5.12-30.72 15.36-40.96l143.36-143.36c10.24-10.24 25.6-15.36 40.96-15.36 5.12 0 20.48 0 30.72 15.36l71.68 71.68c15.36 10.24 15.36 25.6 15.36 30.72 0 15.36-5.12 30.72-15.36 40.96l-143.36 143.36c-10.24 15.36-25.6 15.36-35.84 15.36 5.12 0 0 0 0 0zM665.6 243.2c-15.36 0-25.6 5.12-35.84 15.36l-307.2 307.2c-20.48 20.48-20.48 51.2 0 71.68s51.2 20.48 71.68 0l307.2-307.2c20.48-20.48 20.48-51.2 0-71.68-10.24-10.24-20.48-15.36-35.84-15.36z" />
<glyph unicode="&#xe936;" glyph-name="icon-list-ul" d="M819.2 601.6h-460.8c-30.72 0-51.2 20.48-51.2 51.2s20.48 51.2 51.2 51.2h460.8c30.72 0 51.2-20.48 51.2-51.2s-20.48-51.2-51.2-51.2zM819.2 396.8h-460.8c-30.72 0-51.2 20.48-51.2 51.2s20.48 51.2 51.2 51.2h460.8c30.72 0 51.2-20.48 51.2-51.2s-20.48-51.2-51.2-51.2zM819.2 192h-460.8c-30.72 0-51.2 20.48-51.2 51.2s20.48 51.2 51.2 51.2h460.8c30.72 0 51.2-20.48 51.2-51.2s-20.48-51.2-51.2-51.2zM204.8 601.6v0c-30.72 0-51.2 20.48-51.2 51.2s20.48 51.2 51.2 51.2 51.2-20.48 51.2-51.2-20.48-51.2-51.2-51.2zM204.8 396.8v0c-30.72 0-51.2 20.48-51.2 51.2s20.48 51.2 51.2 51.2 51.2-20.48 51.2-51.2-20.48-51.2-51.2-51.2zM204.8 192v0c-30.72 0-51.2 20.48-51.2 51.2s20.48 51.2 51.2 51.2 51.2-20.48 51.2-51.2-20.48-51.2-51.2-51.2z" />
<glyph unicode="&#xe937;" glyph-name="icon-live-chat" d="M102.4-28.16v814.080c0 61.44 56.32 117.76 117.76 117.76h588.8c61.44 0 117.76-56.32 117.76-117.76v-481.28c-10.24-66.56-56.32-112.64-117.76-112.64h-450.56l-256-220.16zM220.16 801.28c-5.12 0-15.36-10.24-15.36-15.36v-588.8l112.64 97.28h491.52c5.12 0 15.36 10.24 15.36 20.48v471.040c0 5.12-10.24 15.36-15.36 15.36h-588.8z" />
<glyph unicode="&#xe938;" glyph-name="icon-locate" d="M593.92 23.040c0 0 0 0 0 0-25.6 0-40.96 15.36-51.2 35.84l-87.040 327.68-312.32 76.8c-25.6 0-40.96 20.48-40.96 40.96s10.24 40.96 30.72 51.2l716.8 281.6c20.48 5.12 40.96 5.12 56.32-10.24s20.48-35.84 10.24-56.32l-276.48-716.8c-5.12-15.36-25.6-30.72-46.080-30.72zM322.56 519.68l184.32-46.080c20.48-5.12 30.72-20.48 35.84-35.84l56.32-204.8 179.2 460.8-455.68-174.080z" />
<glyph unicode="&#xe939;" glyph-name="icon-lock" d="M870.4-12.8h-716.8v358.4c0 87.040 66.56 153.6 153.6 153.6h409.6c87.040 0 153.6-66.56 153.6-153.6v-358.4zM256 89.6h512v256c0 30.72-20.48 51.2-51.2 51.2h-409.6c-30.72 0-51.2-20.48-51.2-51.2v-256zM768 448h-102.4v133.12c0 87.040-66.56 153.6-153.6 153.6s-153.6-66.56-153.6-153.6v-133.12h-102.4v133.12c0 143.36 112.64 256 256 256s256-112.64 256-256v-133.12z" />
<glyph unicode="&#xe93a;" glyph-name="icon-luggage" d="M866.462 101.415h-708.923c-23.631 0-39.385 15.754-39.385 39.385v508.062c0 23.631 15.754 39.385 39.385 39.385h708.923c23.631 0 39.385-15.754 39.385-39.385v-504.123c0-23.631-19.692-43.323-39.385-43.323zM196.923 180.185h630.154v429.292h-630.154v-429.292zM610.462 609.477c-23.631 0-39.385 15.754-39.385 39.385v66.954h-114.215v-66.954c0-23.631-15.754-39.385-39.385-39.385s-39.385 15.754-39.385 39.385v106.338c0 23.631 15.754 39.385 39.385 39.385h192.985c23.631 0 39.385-15.754 39.385-39.385v-106.338c0-23.631-19.692-39.385-39.385-39.385zM315.077 101.415c-23.631 0-39.385 15.754-39.385 39.385v508.062c0 23.631 15.754 39.385 39.385 39.385s39.385-15.754 39.385-39.385v-504.123c0-23.631-19.692-43.323-39.385-43.323zM716.8 101.415c-23.631 0-39.385 15.754-39.385 39.385v508.062c0 23.631 15.754 39.385 39.385 39.385s39.385-15.754 39.385-39.385v-504.123c0-23.631-15.754-43.323-39.385-43.323z" />
<glyph unicode="&#xe93b;" glyph-name="icon-map-marker" horiz-adv-x="975" d="M487.619-20.114l-268.19 512c-14.629 29.257-24.381 73.143-24.381 117.029 0 170.667 126.781 302.324 292.571 302.324s292.571-131.657 292.571-302.324c0-43.886-9.752-87.771-24.381-117.029l-4.876-9.752-263.314-502.248zM307.2 526.019l180.419-341.333 180.419 341.333c9.752 29.257 14.629 58.514 14.629 82.895 0 117.029-87.771 204.8-195.048 204.8s-195.048-87.771-195.048-204.8c0-24.381 4.876-53.638 14.629-82.895zM560.762 618.667c0-40.396-32.747-73.143-73.143-73.143s-73.143 32.747-73.143 73.143c0 40.396 32.747 73.143 73.143 73.143s73.143-32.747 73.143-73.143z" />
<glyph unicode="&#xe93c;" glyph-name="icon-menu" d="M819.2 601.6h-614.4c-30.72 0-51.2 20.48-51.2 51.2s20.48 51.2 51.2 51.2h614.4c30.72 0 51.2-20.48 51.2-51.2s-20.48-51.2-51.2-51.2zM819.2 396.8h-614.4c-30.72 0-51.2 20.48-51.2 51.2s20.48 51.2 51.2 51.2h614.4c30.72 0 51.2-20.48 51.2-51.2s-20.48-51.2-51.2-51.2zM819.2 192h-614.4c-30.72 0-51.2 20.48-51.2 51.2s20.48 51.2 51.2 51.2h614.4c30.72 0 51.2-20.48 51.2-51.2s-20.48-51.2-51.2-51.2z" />
<glyph unicode="&#xe93d;" glyph-name="icon-minus" d="M819.2 396.8h-614.4c-30.72 0-51.2 20.48-51.2 51.2s20.48 51.2 51.2 51.2h614.4c30.72 0 51.2-20.48 51.2-51.2s-20.48-51.2-51.2-51.2z" />
<glyph unicode="&#xe93e;" glyph-name="icon-mobile" d="M665.6 309.76v394.24h-307.2v-394.24h307.2zM307.2 806.4h409.6c28.277 0 51.2-22.923 51.2-51.2v-614.4c0-28.277-22.923-51.2-51.2-51.2h-409.6c-28.277 0-51.2 22.923-51.2 51.2v614.4c0 28.277 22.923 51.2 51.2 51.2zM512 140.8c28.277 0 51.2 22.923 51.2 51.2s-22.923 51.2-51.2 51.2c-28.277 0-51.2-22.923-51.2-51.2s22.923-51.2 51.2-51.2z" />
<glyph unicode="&#xe93f;" glyph-name="icon-music" d="M307.2-43.52c-87.040 0-153.6 66.56-153.6 153.6s66.56 153.6 153.6 153.6 153.6-66.56 153.6-153.6-66.56-153.6-153.6-153.6zM307.2 161.28c-30.72 0-51.2-20.48-51.2-51.2s20.48-51.2 51.2-51.2 51.2 20.48 51.2 51.2-20.48 51.2-51.2 51.2zM460.8 99.84h-102.4v640l512 189.44v-675.84h-102.4v532.48l-307.2-117.76zM716.8 110.080c-87.040 0-153.6 66.56-153.6 153.6s66.56 153.6 153.6 153.6 153.6-66.56 153.6-153.6-66.56-153.6-153.6-153.6zM716.8 314.88c-30.72 0-51.2-20.48-51.2-51.2s20.48-51.2 51.2-51.2 51.2 20.48 51.2 51.2-20.48 51.2-51.2 51.2z" />
<glyph unicode="&#xe940;" glyph-name="icon-new-2" d="M870.4 84.48h-716.8c-87.040 0-153.6 66.56-153.6 153.6v409.6c0 87.040 66.56 153.6 153.6 153.6h716.8c87.040 0 153.6-66.56 153.6-153.6v-409.6c0-87.040-66.56-153.6-153.6-153.6zM153.6 698.88c-30.72 0-51.2-20.48-51.2-51.2v-409.6c0-30.72 20.48-51.2 51.2-51.2h716.8c30.72 0 51.2 20.48 51.2 51.2v409.6c0 30.72-20.48 51.2-51.2 51.2h-716.8zM204.8 529.92h46.080l71.68-97.28v97.28h51.2v-179.2h-40.96l-76.8 97.28v-97.28h-51.2zM404.48 529.92h143.36v-40.96h-97.28v-25.6h87.040v-40.96h-87.040v-30.72h97.28v-40.96h-143.36zM563.2 529.92h51.2l30.72-102.4 35.84 102.4h40.96l35.84-102.4 30.72 102.4h51.2l-61.44-179.2h-40.96l-35.84 102.4-35.84-102.4h-40.96z" />
<glyph unicode="&#xe941;" glyph-name="icon-newsletter" d="M819.2-12.8h-609.28c-61.44 0-107.52 46.080-107.52 107.52v455.68h102.4v-455.68c0 0 5.12-5.12 5.12-5.12h609.28c0 0 5.12 5.12 5.12 5.12v455.68h102.4v-455.68c0-61.44-46.080-107.52-107.52-107.52zM307.2 396.8h-102.4v460.8h614.4v-450.56h-102.4v348.16h-409.6zM512 212.48l-384 220.16 51.2 92.16 332.8-189.44 332.8 189.44 51.2-92.16z" />
<glyph unicode="&#xe942;" glyph-name="icon-ok" d="M404.48 192c-15.36 0-25.6 5.12-35.84 15.36l-199.68 199.68c-20.48 20.48-20.48 51.2 0 71.68s51.2 20.48 71.68 0l163.84-163.84 378.88 373.76c20.48 20.48 51.2 20.48 71.68 0s20.48-51.2 0-71.68l-414.72-409.6c-10.24-10.24-20.48-15.36-35.84-15.36z" />
<glyph unicode="&#xe943;" glyph-name="icon-pause" d="M358.4 89.6c-30.72 0-51.2 20.48-51.2 51.2v614.4c0 30.72 20.48 51.2 51.2 51.2s51.2-20.48 51.2-51.2v-614.4c0-30.72-20.48-51.2-51.2-51.2zM665.6 89.6c-30.72 0-51.2 20.48-51.2 51.2v614.4c0 30.72 20.48 51.2 51.2 51.2s51.2-20.48 51.2-51.2v-614.4c0-30.72-20.48-51.2-51.2-51.2z" />
<glyph unicode="&#xe944;" glyph-name="icon-phone" d="M711.68 17.92c-117.76 0-276.48 87.040-404.48 220.16-138.24 143.36-220.16 296.96-220.16 404.48 0 30.72 5.12 71.68 35.84 102.4l112.64 112.64c20.48 20.48 51.2 20.48 71.68 0l179.2-174.080c20.48-20.48 20.48-51.2 0-71.68l-71.68-76.8c25.6-40.96 51.2-76.8 81.92-102.4 25.6-25.6 61.44-51.2 102.4-81.92l76.8 71.68c20.48 20.48 51.2 15.36 71.68 0l179.2-179.2c20.48-20.48 20.48-51.2 0-71.68l-112.64-112.64c-25.6-25.6-61.44-40.96-102.4-40.96zM271.36 750.080l-76.8-76.8c0 0-5.12-5.12-5.12-30.72 0-66.56 61.44-194.56 189.44-332.8 122.88-128 261.12-189.44 332.8-189.44 15.36 0 25.6 5.12 30.72 10.24l76.8 76.8-107.52 107.52-71.68-66.56c-15.36-15.36-40.96-15.36-61.44-5.12-61.44 35.84-112.64 76.8-153.6 117.76s-76.8 87.040-117.76 153.6c-10.24 20.48-5.12 40.96 10.24 61.44l66.56 71.68-112.64 102.4z" />
<glyph unicode="&#xe945;" glyph-name="icon-picture" d="M768 89.6h-512c-61.44 0-102.4 40.96-102.4 102.4v460.8c0 61.44 40.96 102.4 102.4 102.4h512c61.44 0 102.4-40.96 102.4-102.4v-460.8c0-61.44-40.96-102.4-102.4-102.4zM256 652.8v-460.8h512c0 0 0 0 0 0v460.8h-512zM501.76 192l-112.64 158.72-153.6-122.88-61.44 81.92 235.52 184.32 112.64-148.48 266.24 225.28 61.44-81.92zM675.84 535.040c0-42.415-34.385-76.8-76.8-76.8s-76.8 34.385-76.8 76.8c0 42.415 34.385 76.8 76.8 76.8s76.8-34.385 76.8-76.8z" />
<glyph unicode="&#xe946;" glyph-name="icon-play" d="M358.4 89.6c-5.12 0-15.36 0-20.48 5.12-20.48 5.12-30.72 25.6-30.72 46.080v614.4c0 20.48 10.24 40.96 30.72 46.080 20.48 10.24 40.96 5.12 56.32-10.24l307.2-307.2c20.48-20.48 20.48-51.2 0-71.68l-307.2-307.2c-10.24-10.24-20.48-15.36-35.84-15.36zM409.6 632.32v-368.64l184.32 184.32-184.32 184.32z" />
<glyph unicode="&#xe947;" glyph-name="icon-plug" d="M512 243.2c-174.080 0-307.2 133.12-307.2 307.2v51.2h614.4v-51.2c0-174.080-133.12-307.2-307.2-307.2zM312.32 499.2c20.48-87.040 102.4-153.6 199.68-153.6s174.080 66.56 199.68 153.6h-399.36zM512 38.4c-30.72 0-51.2 20.48-51.2 51.2v204.8c0 30.72 20.48 51.2 51.2 51.2s51.2-20.48 51.2-51.2v-204.8c0-30.72-20.48-51.2-51.2-51.2zM358.4 499.2c-30.72 0-51.2 20.48-51.2 51.2v204.8c0 30.72 20.48 51.2 51.2 51.2s51.2-20.48 51.2-51.2v-204.8c0-30.72-20.48-51.2-51.2-51.2zM665.6 499.2c-30.72 0-51.2 20.48-51.2 51.2v204.8c0 30.72 20.48 51.2 51.2 51.2s51.2-20.48 51.2-51.2v-204.8c0-30.72-20.48-51.2-51.2-51.2z" />
<glyph unicode="&#xe948;" glyph-name="icon-plus" d="M819.2 396.8h-614.4c-30.72 0-51.2 20.48-51.2 51.2s20.48 51.2 51.2 51.2h614.4c30.72 0 51.2-20.48 51.2-51.2s-20.48-51.2-51.2-51.2zM512 89.6c-30.72 0-51.2 20.48-51.2 51.2v614.4c0 30.72 20.48 51.2 51.2 51.2s51.2-20.48 51.2-51.2v-614.4c0-30.72-20.48-51.2-51.2-51.2z" />
<glyph unicode="&#xe949;" glyph-name="icon-print" d="M921.6 243.2h-819.2v307.2c0 61.44 40.96 102.4 102.4 102.4h614.4c56.32 0 102.4-46.080 102.4-102.4v-307.2zM204.8 345.6h614.4v204.8h-614.4v-204.8zM307.2 857.6h409.6v-102.4h-409.6v102.4zM768 448c0-28.277-22.923-51.2-51.2-51.2s-51.2 22.923-51.2 51.2c0 28.277 22.923 51.2 51.2 51.2s51.2-22.923 51.2-51.2zM768-12.8h-512v256h102.4v-153.6h307.2v153.6h102.4z" />
<glyph unicode="&#xe94a;" glyph-name="icon-question-sign" d="M512-12.8c-256 0-460.8 204.8-460.8 460.8s204.8 460.8 460.8 460.8c256 0 460.8-204.8 460.8-460.8s-204.8-460.8-460.8-460.8zM512 806.4c-199.68 0-358.4-158.72-358.4-358.4s158.72-358.4 358.4-358.4c199.68 0 358.4 158.72 358.4 358.4s-158.72 358.4-358.4 358.4zM563.2 243.2c0-28.277-22.923-51.2-51.2-51.2s-51.2 22.923-51.2 51.2c0 28.277 22.923 51.2 51.2 51.2s51.2-22.923 51.2-51.2zM512 314.88c-30.72 0-51.2 20.48-51.2 51.2v81.92c0 30.72 20.48 51.2 51.2 51.2s51.2-20.48 51.2-51.2v-81.92c0-30.72-20.48-51.2-51.2-51.2zM512 401.92c-30.72 0-51.2 20.48-51.2 51.2s20.48 51.2 51.2 51.2c30.72 0 51.2 20.48 51.2 51.2s-20.48 51.2-51.2 51.2-51.2-20.48-51.2-51.2c0-30.72-20.48-51.2-51.2-51.2s-51.2 20.48-51.2 51.2c0 87.040 66.56 153.6 153.6 153.6s153.6-66.56 153.6-153.6-66.56-153.6-153.6-153.6z" />
<glyph unicode="&#xe94b;" glyph-name="icon-quote-left" d="M250.88 565.76c-5.12 0-5.12 0-10.24 0l61.44 117.76c10.24 20.48 5.12 51.2-20.48 66.56-25.6 10.24-56.32 5.12-71.68-20.48l-143.36-281.6c0 0 0 0 0 0-10.24-25.6-20.48-51.2-20.48-81.92 0-112.64 92.16-204.8 204.8-204.8s204.8 92.16 204.8 204.8c0 107.52-92.16 199.68-204.8 199.68zM762.88 565.76c-5.12 0-5.12 0-10.24 0l61.44 117.76c10.24 20.48 5.12 51.2-20.48 66.56s-56.32 5.12-66.56-20.48l-148.48-281.6c0 0 0 0 0 0-10.24-25.6-20.48-51.2-20.48-81.92 0-112.64 92.16-204.8 204.8-204.8s204.8 92.16 204.8 204.8c0 107.52-92.16 199.68-204.8 199.68z" />
<glyph unicode="&#xe94c;" glyph-name="icon-quote-right" d="M762.88 755.2c-112.64 0-204.8-92.16-204.8-204.8s92.16-204.8 204.8-204.8c0 0 5.12 0 5.12 0l-56.32-117.76c-10.24-25.6 0-56.32 20.48-66.56 5.12-5.12 15.36-5.12 20.48-5.12 20.48 0 35.84 10.24 46.080 30.72l122.88 240.64c25.6 35.84 46.080 76.8 46.080 122.88 0 112.64-92.16 204.8-204.8 204.8zM250.88 755.2c-112.64 0-204.8-92.16-204.8-204.8s92.16-204.8 204.8-204.8c0 0 5.12 0 5.12 0l-56.32-117.76c-10.24-25.6 0-56.32 20.48-66.56 5.12-5.12 15.36-5.12 20.48-5.12 20.48 0 35.84 10.24 46.080 30.72l122.88 240.64c30.72 30.72 46.080 76.8 46.080 122.88 0 112.64-92.16 204.8-204.8 204.8z" />
<glyph unicode="&#xe94d;" glyph-name="icon-radio-checked" d="M512 140.8c-168.96 0-307.2 138.24-307.2 307.2s138.24 307.2 307.2 307.2 307.2-138.24 307.2-307.2-138.24-307.2-307.2-307.2zM512 652.8c-112.64 0-204.8-92.16-204.8-204.8s92.16-204.8 204.8-204.8c112.64 0 204.8 92.16 204.8 204.8s-92.16 204.8-204.8 204.8zM588.8 448c0-42.415-34.385-76.8-76.8-76.8s-76.8 34.385-76.8 76.8c0 42.415 34.385 76.8 76.8 76.8s76.8-34.385 76.8-76.8z" />
<glyph unicode="&#xe94e;" glyph-name="icon-radio-unchecked" d="M512 140.8c-168.96 0-307.2 138.24-307.2 307.2s138.24 307.2 307.2 307.2 307.2-138.24 307.2-307.2-138.24-307.2-307.2-307.2zM512 652.8c-112.64 0-204.8-92.16-204.8-204.8s92.16-204.8 204.8-204.8c112.64 0 204.8 92.16 204.8 204.8s-92.16 204.8-204.8 204.8z" />
<glyph unicode="&#xe94f;" glyph-name="icon-rain" d="M588.8 38.4c0-42.415-34.385-76.8-76.8-76.8s-76.8 34.385-76.8 76.8c0 42.415 34.385 76.8 76.8 76.8s76.8-34.385 76.8-76.8zM332.8 38.4c0-42.415-34.385-76.8-76.8-76.8s-76.8 34.385-76.8 76.8c0 42.415 34.385 76.8 76.8 76.8s76.8-34.385 76.8-76.8zM844.8 38.4c0-42.415-34.385-76.8-76.8-76.8s-76.8 34.385-76.8 76.8c0 42.415 34.385 76.8 76.8 76.8s76.8-34.385 76.8-76.8zM788.48 243.2h-522.24c-148.48 0-266.24 112.64-266.24 250.88 0 112.64 81.92 209.92 199.68 240.64 15.36 56.32 40.96 102.4 87.040 143.36 61.44 51.2 143.36 81.92 225.28 81.92s163.84-30.72 225.28-87.040c56.32-51.2 92.16-122.88 97.28-194.56 107.52-15.36 189.44-107.52 189.44-215.040 0-122.88-107.52-220.16-235.52-220.16zM512 857.6c-56.32 0-112.64-20.48-153.6-56.32-35.84-35.84-56.32-71.68-61.44-117.76l-5.12-40.96-40.96-5.12c-87.040-10.24-148.48-71.68-148.48-143.36 0-81.92 71.68-148.48 163.84-148.48h522.24c71.68 0 133.12 51.2 133.12 117.76s-61.44 117.76-133.12 117.76h-71.68l10.24 56.32c10.24 61.44-15.36 117.76-61.44 163.84-40.96 35.84-97.28 56.32-153.6 56.32z" />
<glyph unicode="&#xe950;" glyph-name="icon-refresh" horiz-adv-x="1075" d="M563.2 12.8c-148.48 0-281.6 71.68-358.4 194.56-15.36 25.6-10.24 56.32 15.36 71.68s56.32 10.24 71.68-15.36c61.44-92.16 163.84-143.36 276.48-143.36 179.2 0 332.8 153.6 332.8 332.8 0 30.72 20.48 51.2 51.2 51.2s51.2-20.48 51.2-51.2c-5.12-245.76-199.68-440.32-440.32-440.32zM189.44 458.24c-30.72 0-51.2 20.48-51.2 51.2v20.48c0 5.12 0 5.12 0 10.24 40.96 199.68 220.16 343.040 424.96 343.040 153.6 0 296.96-81.92 373.76-209.92 15.36-25.6 5.12-56.32-20.48-71.68s-56.32-5.12-71.68 20.48c-61.44 97.28-163.84 158.72-281.6 158.72-158.72 0-286.72-107.52-322.56-256v-15.36c0-30.72-20.48-51.2-51.2-51.2zM1049.6 273.92c-15.36 0-30.72 5.12-40.96 20.48l-66.56 97.28-97.28-71.68c-20.48-15.36-56.32-10.24-71.68 10.24s-10.24 56.32 10.24 71.68l138.24 102.4c10.24 10.24 25.6 10.24 40.96 10.24s25.6-10.24 35.84-20.48l97.28-138.24c15.36-25.6 10.24-56.32-10.24-71.68-15.36-5.12-25.6-10.24-35.84-10.24zM174.080 381.44c-5.12 0-5.12 0-10.24 0-10.24 5.12-25.6 10.24-30.72 20.48l-97.28 143.36c-15.36 25.6-10.24 56.32 10.24 71.68 25.6 15.36 56.32 10.24 71.68-10.24l66.56-102.4 97.28 66.56c25.6 15.36 56.32 10.24 71.68-10.24 15.36-25.6 10.24-56.32-10.24-71.68l-138.24-97.28c-10.24-5.12-20.48-10.24-30.72-10.24z" />
<glyph unicode="&#xe951;" glyph-name="icon-remove" d="M716.8 192c-15.36 0-25.6 5.12-35.84 15.36l-409.6 409.6c-20.48 20.48-20.48 51.2 0 71.68s51.2 20.48 71.68 0l409.6-409.6c20.48-20.48 20.48-51.2 0-71.68-10.24-10.24-20.48-15.36-35.84-15.36zM307.2 192c-15.36 0-25.6 5.12-35.84 15.36-20.48 20.48-20.48 51.2 0 71.68l409.6 409.6c20.48 20.48 51.2 20.48 71.68 0s20.48-51.2 0-71.68l-409.6-409.6c-10.24-10.24-20.48-15.36-35.84-15.36z" />
<glyph unicode="&#xe952;" glyph-name="icon-reorder" d="M819.2 601.6h-614.4c-30.72 0-51.2 20.48-51.2 51.2s20.48 51.2 51.2 51.2h614.4c30.72 0 51.2-20.48 51.2-51.2s-20.48-51.2-51.2-51.2zM819.2 396.8h-614.4c-30.72 0-51.2 20.48-51.2 51.2s20.48 51.2 51.2 51.2h614.4c30.72 0 51.2-20.48 51.2-51.2s-20.48-51.2-51.2-51.2zM819.2 192h-614.4c-30.72 0-51.2 20.48-51.2 51.2s20.48 51.2 51.2 51.2h614.4c30.72 0 51.2-20.48 51.2-51.2s-20.48-51.2-51.2-51.2z" />
<glyph unicode="&#xe953;" glyph-name="icon-repeat" d="M552.96-53.76c-10.24 0-20.48 0-30.72 0-117.76 5.12-225.28 61.44-296.96 148.48-76.8 87.040-112.64 199.68-107.52 317.44s61.44 225.28 148.48 296.96c81.92 71.68 194.56 112.64 312.32 102.4 117.76-5.12 225.28-56.32 302.080-143.36 20.48-20.48 15.36-51.2-5.12-71.68s-51.2-15.36-71.68 5.12c-117.76 138.24-332.8 148.48-471.040 30.72-66.56-61.44-107.52-143.36-112.64-230.4s20.48-174.080 81.92-240.64c56.32-66.56 138.24-107.52 230.4-112.64 87.040-5.12 174.080 20.48 240.64 81.92 20.48 20.48 51.2 15.36 71.68-5.12s15.36-51.2-5.12-71.68c-81.92-71.68-184.32-107.52-286.72-107.52zM870.4 550.4h-235.52c-30.72 0-51.2 20.48-51.2 51.2s20.48 51.2 51.2 51.2h184.32v158.72c0 30.72 20.48 51.2 51.2 51.2s51.2-20.48 51.2-51.2v-209.92c0-30.72-20.48-51.2-51.2-51.2z" />
<glyph unicode="&#xe954;" glyph-name="icon-reply" d="M409.6 243.2c-15.36 0-25.6 5.12-35.84 15.36l-204.8 204.8c-20.48 20.48-20.48 51.2 0 71.68l204.8 204.8c20.48 20.48 51.2 20.48 71.68 0s20.48-51.2 0-71.68l-168.96-168.96 168.96-168.96c20.48-20.48 20.48-51.2 0-71.68-10.24-10.24-20.48-15.36-35.84-15.36zM768 243.2c-30.72 0-51.2 20.48-51.2 51.2 0 87.040-66.56 153.6-153.6 153.6h-307.2c-30.72 0-51.2 20.48-51.2 51.2s20.48 51.2 51.2 51.2h307.2c143.36 0 256-112.64 256-256 0-30.72-20.48-51.2-51.2-51.2z" />
<glyph unicode="&#xe955;" glyph-name="icon-reset" d="M481.28 17.92c-107.52 0-204.8 35.84-286.72 107.52-20.48 20.48-25.6 51.2-5.12 71.68s51.2 25.6 71.68 5.12c66.56-56.32 153.6-87.040 240.64-81.92s168.96 46.080 230.4 112.64c117.76 138.24 102.4 353.28-30.72 471.040-66.56 56.32-153.6 87.040-240.64 76.8-87.040-5.12-168.96-46.080-225.28-112.64-20.48-20.48-51.2-25.6-71.68-5.12s-25.6 51.2-5.12 71.68c76.8 87.040 179.2 143.36 296.96 153.6s230.4-30.72 317.44-107.52c179.2-158.72 199.68-435.2 40.96-614.4-76.8-87.040-184.32-138.24-296.96-148.48-15.36 0-25.6 0-35.84 0zM317.44 601.6c0 0 0 0 0 0l-163.84 5.12c-25.6 0-51.2 25.6-51.2 51.2v168.96c0 30.72 20.48 51.2 51.2 51.2s51.2-20.48 51.2-51.2v-117.76l112.64-5.12c30.72 0 51.2-25.6 51.2-51.2 0-30.72-25.6-51.2-51.2-51.2z" />
<glyph unicode="&#xe956;" glyph-name="icon-resize-full" d="M824.32 509.44c-30.72 0-51.2 20.48-51.2 51.2v194.56h-194.56c-30.72 0-51.2 20.48-51.2 51.2s20.48 51.2 51.2 51.2h245.76c30.72 0 51.2-20.48 51.2-51.2v-245.76c0-30.72-20.48-51.2-51.2-51.2zM517.12 448c-15.36 0-25.6 5.12-35.84 15.36-20.48 20.48-20.48 51.2 0 71.68l281.6 281.6c20.48 20.48 51.2 20.48 71.68 0s20.48-51.2 0-71.68l-281.6-281.6c-10.24-10.24-20.48-15.36-35.84-15.36zM353.28 38.4h-245.76c-30.72 0-51.2 20.48-51.2 51.2v245.76c0 30.72 20.48 51.2 51.2 51.2s51.2-20.48 51.2-51.2v-194.56h194.56c30.72 0 51.2-20.48 51.2-51.2s-20.48-51.2-51.2-51.2zM133.12 64c-15.36 0-25.6 5.12-35.84 15.36-20.48 20.48-20.48 51.2 0 71.68l281.6 281.6c20.48 20.48 51.2 20.48 71.68 0s20.48-51.2 0-71.68l-281.6-281.6c-10.24-10.24-20.48-15.36-35.84-15.36z" />
<glyph unicode="&#xe957;" glyph-name="icon-resize-small" d="M808.96 448h-245.76c-30.72 0-51.2 20.48-51.2 51.2v245.76c0 30.72 20.48 51.2 51.2 51.2s51.2-20.48 51.2-51.2v-194.56h194.56c30.72 0 51.2-20.48 51.2-51.2s-20.48-51.2-51.2-51.2zM588.8 473.6c-15.36 0-25.6 5.12-35.84 15.36-20.48 20.48-20.48 51.2 0 71.68l281.6 281.6c20.48 20.48 51.2 20.48 71.68 0s20.48-51.2 0-71.68l-281.6-281.6c-10.24-10.24-20.48-15.36-35.84-15.36zM460.8 99.84c-30.72 0-51.2 20.48-51.2 51.2v194.56h-194.56c-30.72 0-51.2 20.48-51.2 51.2s20.48 51.2 51.2 51.2h245.76c30.72 0 51.2-20.48 51.2-51.2v-245.76c0-30.72-20.48-51.2-51.2-51.2zM153.6 38.4c-15.36 0-25.6 5.12-35.84 15.36-20.48 20.48-20.48 51.2 0 71.68l281.6 281.6c20.48 20.48 51.2 20.48 71.68 0s20.48-51.2 0-71.68l-281.6-281.6c-10.24-10.24-20.48-15.36-35.84-15.36z" />
<glyph unicode="&#xe958;" glyph-name="icon-rss" d="M768 140.8c-30.72 0-51.2 20.48-51.2 51.2 0 256-204.8 460.8-460.8 460.8-30.72 0-51.2 20.48-51.2 51.2s20.48 51.2 51.2 51.2c312.32 0 563.2-250.88 563.2-563.2 0-30.72-20.48-51.2-51.2-51.2zM563.2 140.8c-30.72 0-51.2 20.48-51.2 51.2 0 143.36-112.64 256-256 256-30.72 0-51.2 20.48-51.2 51.2s20.48 51.2 51.2 51.2c199.68 0 358.4-158.72 358.4-358.4 0-30.72-20.48-51.2-51.2-51.2zM358.4 243.2c0-28.277-22.923-51.2-51.2-51.2s-51.2 22.923-51.2 51.2c0 28.277 22.923 51.2 51.2 51.2s51.2-22.923 51.2-51.2z" />
<glyph unicode="&#xe959;" glyph-name="icon-search" d="M849.92 33.28c-15.36 0-25.6 5.12-35.84 15.36l-256 256c-20.48 20.48-20.48 51.2 0 71.68s51.2 20.48 71.68 0l256-256c20.48-20.48 20.48-51.2 0-71.68-10.24-10.24-20.48-15.36-35.84-15.36zM409.6 243.2c-168.96 0-307.2 138.24-307.2 307.2s138.24 307.2 307.2 307.2 307.2-138.24 307.2-307.2-138.24-307.2-307.2-307.2zM409.6 755.2c-112.64 0-204.8-92.16-204.8-204.8s92.16-204.8 204.8-204.8 204.8 92.16 204.8 204.8-92.16 204.8-204.8 204.8z" />
<glyph unicode="&#xe95a;" glyph-name="icon-service-and-maintenance" d="M917.662 345.6c0-23.631-15.754-39.385-39.385-39.385s-39.385 15.754-39.385 39.385c7.877 31.508 23.631 59.077 39.385 86.646 19.692-27.569 31.508-59.077 39.385-86.646zM586.831 188.062h-362.338c-55.138 0-98.462 43.323-98.462 98.462v157.538c0 47.262 39.385 82.708 82.708 82.708h259.938c11.815 0 23.631-3.938 31.508-11.815l31.508-35.446 240.246 118.154c15.754 7.877 31.508 3.938 43.323-3.938l78.769-70.892c15.754-15.754 19.692-39.385 3.938-55.138s-39.385-19.692-55.138-3.938l-47.262 43.323-173.292-299.323c-7.877-11.815-19.692-19.692-35.446-19.692zM208.738 448c-3.938 0-3.938-3.938-3.938-3.938v-157.538c0-7.877 7.877-19.692 19.692-19.692h342.646l114.215 196.923-141.785-70.892c-15.754-7.877-35.446-3.938-47.262 7.877l-39.385 43.323h-244.185v3.938zM287.508 459.815c-23.631 0-39.385 15.754-39.385 39.385v118.154c0 23.631 15.754 39.385 39.385 39.385s39.385-15.754 39.385-39.385v-118.154c0-19.692-15.754-39.385-39.385-39.385zM366.277 577.969h-157.538c-23.631 0-39.385 15.754-39.385 39.385s15.754 39.385 39.385 39.385h157.538c23.631 0 39.385-15.754 39.385-39.385s-15.754-39.385-39.385-39.385z" />
<glyph unicode="&#xe95b;" glyph-name="icon-share" d="M337.92 637.44c-15.36 0-25.6 5.12-35.84 15.36-20.48 20.48-20.48 51.2 0 71.68l138.24 138.24c40.96 40.96 102.4 40.96 143.36 0l138.24-138.24c20.48-20.48 20.48-51.2 0-71.68s-51.2-20.48-71.68 0l-138.24 138.24-138.24-138.24c-10.24-10.24-20.48-15.36-35.84-15.36zM512 227.84c-30.72 0-51.2 20.48-51.2 51.2v547.84c0 30.72 20.48 51.2 51.2 51.2s51.2-20.48 51.2-51.2v-547.84c0-30.72-20.48-51.2-51.2-51.2zM819.2-12.8h-614.4c-56.32 0-102.4 46.080-102.4 102.4v312.32c0 56.32 46.080 102.4 102.4 102.4h107.52c30.72 0 51.2-20.48 51.2-51.2s-20.48-51.2-51.2-51.2h-107.52v-312.32h614.4v312.32h-117.76c-30.72 0-51.2 20.48-51.2 51.2s20.48 51.2 51.2 51.2h117.76c51.2 0 102.4-51.2 102.4-102.4v-312.32c0-51.2-51.2-102.4-102.4-102.4z" />
<glyph unicode="&#xe95c;" glyph-name="icon-skip-backward" d="M512 89.6c-15.36 0-25.6 5.12-35.84 15.36l-307.2 307.2c-20.48 20.48-20.48 51.2 0 71.68l307.2 307.2c15.36 15.36 35.84 20.48 56.32 10.24 20.48-5.12 30.72-25.6 30.72-46.080v-614.4c0-20.48-10.24-40.96-30.72-46.080-5.12-5.12-15.36-5.12-20.48-5.12zM276.48 448l184.32-184.32v368.64l-184.32-184.32zM102.4 89.6c-30.72 0-51.2 20.48-51.2 51.2v614.4c0 30.72 20.48 51.2 51.2 51.2s51.2-20.48 51.2-51.2v-614.4c0-30.72-20.48-51.2-51.2-51.2zM921.6 89.6c-15.36 0-25.6 5.12-35.84 15.36l-307.2 307.2c-20.48 20.48-20.48 51.2 0 71.68l307.2 307.2c15.36 15.36 35.84 20.48 56.32 10.24 20.48-5.12 30.72-25.6 30.72-46.080v-614.4c0-20.48-10.24-40.96-30.72-46.080-5.12-5.12-15.36-5.12-20.48-5.12zM686.080 448l184.32-184.32v368.64l-184.32-184.32z" />
<glyph unicode="&#xe95d;" glyph-name="icon-skip-forward" d="M51.2 89.6c-5.12 0-15.36 0-20.48 5.12-20.48 5.12-30.72 25.6-30.72 46.080v614.4c0 20.48 10.24 40.96 30.72 46.080 20.48 10.24 40.96 5.12 56.32-10.24l307.2-307.2c20.48-20.48 20.48-51.2 0-71.68l-307.2-307.2c-10.24-10.24-20.48-15.36-35.84-15.36zM102.4 632.32v-368.64l184.32 184.32-184.32 184.32zM460.8 89.6c-5.12 0-15.36 0-20.48 5.12-20.48 5.12-30.72 25.6-30.72 46.080v614.4c0 20.48 10.24 40.96 30.72 46.080 20.48 10.24 40.96 5.12 56.32-10.24l307.2-307.2c20.48-20.48 20.48-51.2 0-71.68l-307.2-307.2c-10.24-10.24-20.48-15.36-35.84-15.36zM512 632.32v-368.64l184.32 184.32-184.32 184.32zM870.4 89.6c-30.72 0-51.2 20.48-51.2 51.2v614.4c0 30.72 20.48 51.2 51.2 51.2s51.2-20.48 51.2-51.2v-614.4c0-30.72-20.48-51.2-51.2-51.2z" />
<glyph unicode="&#xe95e;" glyph-name="icon-snowflake" d="M972.8 396.8h-921.6c-30.72 0-51.2 20.48-51.2 51.2s20.48 51.2 51.2 51.2h921.6c30.72 0 51.2-20.48 51.2-51.2s-20.48-51.2-51.2-51.2zM204.8 192c-15.36 0-25.6 5.12-35.84 15.36-20.48 20.48-20.48 51.2 0 71.68l168.96 168.96-168.96 168.96c-20.48 20.48-20.48 51.2 0 71.68s51.2 20.48 71.68 0l240.64-240.64-240.64-240.64c-10.24-10.24-20.48-15.36-35.84-15.36zM819.2 192c-15.36 0-25.6 5.12-35.84 15.36l-240.64 240.64 240.64 240.64c20.48 20.48 51.2 20.48 71.68 0s20.48-51.2 0-71.68l-168.96-168.96 168.96-168.96c20.48-20.48 20.48-51.2 0-71.68-10.24-10.24-20.48-15.36-35.84-15.36zM512-64c-30.72 0-51.2 20.48-51.2 51.2v921.6c0 30.72 20.48 51.2 51.2 51.2s51.2-20.48 51.2-51.2v-921.6c0-30.72-20.48-51.2-51.2-51.2zM512 529.92l-240.64 240.64c-20.48 20.48-20.48 51.2 0 71.68s51.2 20.48 71.68 0l168.96-168.96 168.96 168.96c20.48 20.48 51.2 20.48 71.68 0s20.48-51.2 0-71.68l-240.64-240.64zM716.8 38.4c-15.36 0-25.6 5.12-35.84 15.36l-168.96 168.96-168.96-168.96c-20.48-20.48-51.2-20.48-71.68 0s-20.48 51.2 0 71.68l240.64 240.64 240.64-240.64c20.48-20.48 20.48-51.2 0-71.68-10.24-10.24-20.48-15.36-35.84-15.36z" />
<glyph unicode="&#xe95f;" glyph-name="icon-star" d="M972.8 555.52h-348.16l-112.64 353.28-112.64-353.28h-348.16l296.96-215.040-133.12-353.28 296.96 215.040 296.96-215.040-133.12 353.28z" />
<glyph unicode="&#xe960;" glyph-name="icon-star-half" d="M512 903.68l-112.64-353.28h-348.16l296.96-215.040-133.12-353.28 296.96 215.040z" />
<glyph unicode="&#xe961;" glyph-name="icon-step-backward" d="M716.8 89.6c-15.36 0-25.6 5.12-35.84 15.36l-307.2 307.2c-20.48 20.48-20.48 51.2 0 71.68l307.2 307.2c15.36 15.36 35.84 20.48 56.32 10.24 20.48-5.12 30.72-25.6 30.72-46.080v-614.4c0-20.48-10.24-40.96-30.72-46.080-5.12-5.12-15.36-5.12-20.48-5.12zM481.28 448l184.32-184.32v368.64l-184.32-184.32zM307.2 89.6c-30.72 0-51.2 20.48-51.2 51.2v614.4c0 30.72 20.48 51.2 51.2 51.2s51.2-20.48 51.2-51.2v-614.4c0-30.72-20.48-51.2-51.2-51.2z" />
<glyph unicode="&#xe962;" glyph-name="icon-step-forward" d="M307.2 89.6c-5.12 0-15.36 0-20.48 5.12-20.48 5.12-30.72 25.6-30.72 46.080v614.4c0 20.48 10.24 40.96 30.72 46.080 20.48 10.24 40.96 5.12 56.32-10.24l307.2-307.2c20.48-20.48 20.48-51.2 0-71.68l-307.2-307.2c-10.24-10.24-20.48-15.36-35.84-15.36zM358.4 632.32v-368.64l184.32 184.32-184.32 184.32zM716.8 89.6c-30.72 0-51.2 20.48-51.2 51.2v614.4c0 30.72 20.48 51.2 51.2 51.2s51.2-20.48 51.2-51.2v-614.4c0-30.72-20.48-51.2-51.2-51.2z" />
<glyph unicode="&#xe963;" glyph-name="icon-stop" d="M819.2 89.6h-614.4c-30.72 0-51.2 20.48-51.2 51.2v614.4c0 30.72 20.48 51.2 51.2 51.2h614.4c30.72 0 51.2-20.48 51.2-51.2v-614.4c0-30.72-20.48-51.2-51.2-51.2zM256 192h512v512h-512v-512z" />
<glyph unicode="&#xe964;" glyph-name="icon-sun-stroke" d="M491.52-38.4c0 0 0 0 0 0h-10.24c-40.96 0-76.8 40.96-71.68 81.92 0 40.96 40.96 76.8 81.92 71.68h5.12c40.96 0 76.8-40.96 71.68-81.92 0-40.96-35.84-71.68-76.8-71.68zM737.28 28.16c-25.6 0-51.2 15.36-66.56 35.84-20.48 35.84-10.24 81.92 25.6 107.52 35.84 20.48 81.92 15.36 107.52-20.48 20.48-35.84 15.36-81.92-20.48-102.4 0 0-5.12-5.12-5.12-5.12-15.36-10.24-25.6-15.36-40.96-15.36zM256 53.76c-15.36 0-35.84 5.12-51.2 15.36l51.2 61.44-51.2-56.32c-30.72 25.6-35.84 76.8-10.24 107.52s76.8 35.84 107.52 10.24c0 0 5.12-5.12 5.12-5.12 30.72-25.6 35.84-76.8 10.24-107.52-20.48-15.36-40.96-25.6-61.44-25.6zM896 227.84c-10.24 0-15.36 0-25.6 5.12-40.96 15.36-61.44 56.32-46.080 97.28s56.32 66.56 97.28 51.2c40.96-15.36 61.44-56.32 46.080-97.28 0 0 0-5.12 0-5.12-10.24-30.72-40.96-51.2-71.68-51.2zM112.64 273.92c-35.84 0-61.44 20.48-71.68 56.32 0 0 0 5.12 0 5.12-10.24 40.96 15.36 81.92 56.32 92.16s81.92-15.36 92.16-56.32c10.24-40.96-15.36-87.040-56.32-97.28-5.12 0-15.36 0-20.48 0zM906.24 483.84c-35.84 0-66.56 20.48-71.68 56.32-10.24 40.96 10.24 87.040 51.2 97.28s81.92-10.24 97.28-51.2v-5.12c10.24-40.96-15.36-81.92-56.32-92.16-10.24 0-15.36-5.12-20.48-5.12zM133.12 529.92c-10.24 0-20.48 0-25.6 5.12-40.96 15.36-61.44 56.32-46.080 97.28v5.12c15.36 40.96 61.44 56.32 102.4 40.96s56.32-61.44 40.96-102.4c-10.24-30.72-40.96-46.080-71.68-46.080zM757.76 698.88c-15.36 0-30.72 5.12-46.080 15.36l-5.12 5.12c-35.84 25.6-40.96 71.68-15.36 107.52s71.68 40.96 107.52 15.36h5.12c35.84-25.6 40.96-71.68 15.36-107.52-10.24-25.6-35.84-35.84-61.44-35.84zM302.080 724.48c-25.6 0-51.2 10.24-66.56 35.84-20.48 35.84-15.36 81.92 20.48 102.4 0 0 5.12 5.12 5.12 5.12 35.84 20.48 81.92 10.24 107.52-25.6 20.48-40.96 10.24-87.040-25.6-107.52-15.36-10.24-25.6-10.24-40.96-10.24zM517.12 780.8c0 0 0 0 0 0-40.96 0-81.92 35.84-81.92 76.8s30.72 76.8 76.8 76.8h5.12c46.080 0 76.8-35.84 76.8-76.8s-35.84-76.8-76.8-76.8zM512 192c-143.36 0-256 112.64-256 256s112.64 256 256 256 256-112.64 256-256-112.64-256-256-256zM512 601.6c-87.040 0-153.6-66.56-153.6-153.6s66.56-153.6 153.6-153.6 153.6 66.56 153.6 153.6-66.56 153.6-153.6 153.6z" />
<glyph unicode="&#xe965;" glyph-name="icon-tablet" d="M307.2 258.56h409.6v496.64h-409.6v-496.64zM256 857.6h512c28.277 0 51.2-22.923 51.2-51.2v-716.8c0-28.277-22.923-51.2-51.2-51.2h-512c-28.277 0-51.2 22.923-51.2 51.2v716.8c0 28.277 22.923 51.2 51.2 51.2zM512 89.6c28.277 0 51.2 22.923 51.2 51.2s-22.923 51.2-51.2 51.2c-28.277 0-51.2-22.923-51.2-51.2s22.923-51.2 51.2-51.2z" />
<glyph unicode="&#xe966;" glyph-name="icon-tag" d="M527.36-12.8c-30.72 0-66.56 15.36-92.16 40.96l-394.24 394.24c-25.6 25.6-40.96 61.44-40.96 92.16v266.24c0 71.68 56.32 128 128 128h266.24c30.72 0 66.56-15.36 92.16-40.96l394.24-394.24c25.6-25.6 40.96-56.32 40.96-92.16s-15.36-66.56-40.96-87.040l-261.12-261.12c-25.6-30.72-61.44-46.080-92.16-46.080zM128 806.4c-10.24 0-25.6-15.36-25.6-25.6v-266.24c0-5.12 5.12-10.24 10.24-20.48l394.24-394.24c15.36-15.36 25.6-15.36 40.96 0l266.24 266.24c5.12 5.12 5.12 10.24 5.12 15.36s0 10.24-10.24 20.48l-394.24 394.24c-10.24 5.12-15.36 10.24-20.48 10.24h-266.24zM384 601.6c0-42.415-34.385-76.8-76.8-76.8s-76.8 34.385-76.8 76.8c0 42.415 34.385 76.8 76.8 76.8s76.8-34.385 76.8-76.8z" />
<glyph unicode="&#xe967;" glyph-name="icon-test-drive" d="M916.48-33.28l-245.76 40.96 10.24 92.16-71.68 10.24 10.24 71.68-46.080 5.12-40.96 51.2c-66.56-51.2-158.72-40.96-209.92 20.48l-179.2 199.68c-97.28 122.88-81.92 296.96 35.84 399.36 112.64 97.28 286.72 87.040 384-25.6 5.12-5.12 15.36-10.24 15.36-20.48l163.84-194.56c51.2-66.56 46.080-153.6-10.24-209.92l199.68-245.76-15.36-194.56zM783.36 94.72l40.96-10.24 5.12 46.080-40.96 46.080-5.12-81.92zM721.92 197.12l61.44-10.24-56.32 66.56-5.12-56.32zM624.64 289.28l87.040-5.12-117.76 138.24 71.68 61.44c15.36 15.36 20.48 46.080 0 71.68l-174.080 204.8c-61.44 71.68-174.080 81.92-250.88 15.36-35.84-30.72-56.32-71.68-61.44-117.76 0-46.080 15.36-92.16 46.080-133.12l174.080-199.68c20.48-20.48 51.2-20.48 71.68-5.12l71.68 61.44 81.92-92.16zM440.32 642.56c0-45.243-36.677-81.92-81.92-81.92s-81.92 36.677-81.92 81.92c0 45.243 36.677 81.92 81.92 81.92s81.92-36.677 81.92-81.92z" />
<glyph unicode="&#xe968;" glyph-name="icon-th-large" d="M460.8 499.2h-409.6v256c0 87.040 66.56 153.6 153.6 153.6h256v-409.6zM153.6 601.6h204.8v204.8h-153.6c-30.72 0-51.2-20.48-51.2-51.2v-153.6zM972.8 499.2h-409.6v409.6h256c87.040 0 153.6-66.56 153.6-153.6v-256zM665.6 601.6h204.8v153.6c0 30.72-20.48 51.2-51.2 51.2h-153.6v-204.8zM460.8-12.8h-256c-87.040 0-153.6 66.56-153.6 153.6v256h409.6v-409.6zM153.6 294.4v-153.6c0-30.72 20.48-51.2 51.2-51.2h153.6v204.8h-204.8zM819.2-12.8h-256v409.6h409.6v-256c0-87.040-66.56-153.6-153.6-153.6zM665.6 89.6h153.6c30.72 0 51.2 20.48 51.2 51.2v153.6h-204.8v-204.8z" />
<glyph unicode="&#xe969;" glyph-name="icon-thumbs-up" d="M824.32 89.6h-414.72v501.76l40.96 10.24c10.24 0 15.36 5.12 15.36 5.12 0 5.12 5.12 20.48 5.12 46.080v56.32c0 81.92 66.56 148.48 148.48 148.48 87.040 0 148.48-61.44 148.48-148.48v-107.52h107.52c51.2 0 97.28-46.080 97.28-102.4v-10.24l-51.2-312.32c-5.12-51.2-46.080-87.040-97.28-87.040zM512 192h307.2l51.2 307.2h-204.8v209.92c0 25.6-20.48 46.080-46.080 46.080-20.48 0-46.080-15.36-46.080-46.080v-56.32c0-46.080 0-107.52-61.44-138.24v-322.56zM307.2 89.6h-307.2v512h307.2v-512zM102.4 192h102.4v307.2h-102.4v-307.2z" />
<glyph unicode="&#xe96a;" glyph-name="icon-trash" d="M639.212 84.086h-250.88c-46.080 0-81.92 30.72-92.16 71.68v5.12l-40.96 455.68h506.88l-35.84-460.8c-5.12-46.080-46.080-71.68-87.040-71.68zM398.572 186.486h225.28l25.6 332.8h-276.48l25.6-332.8zM746.732 672.886h-471.040c-30.72 0-51.2 20.48-51.2 51.2s20.48 51.2 51.2 51.2h471.040c30.72 0 51.2-20.48 51.2-51.2s-20.48-51.2-51.2-51.2zM567.532 765.046c0-31.105-25.215-56.32-56.32-56.32s-56.32 25.215-56.32 56.32c0 31.105 25.215 56.32 56.32 56.32s56.32-25.215 56.32-56.32z" />
<glyph unicode="&#xe96b;" glyph-name="icon-tsm" d="M682.667 341.333h-119.467c12.8 42.667 21.333 81.067 34.133 123.733 12.8 46.933 25.6 93.867 38.4 140.8 4.267 12.8 8.533 21.333 25.6 17.067h85.333c17.067 0 21.333-4.267 25.6-21.333 8.533-29.867 17.067-59.733 25.6-93.867 25.6 34.133 51.2 64 76.8 93.867 8.533 8.533 21.333 12.8 29.867 12.8h102.4c-8.533-34.133-17.067-68.267-25.6-98.133-12.8-55.467-29.867-110.933-42.667-166.4-4.267-12.8-8.533-21.333-21.333-17.067h-102.4c12.8 46.933 25.6 93.867 34.133 136.533l-4.267 4.267c-25.6-34.133-51.2-64-81.067-102.4-8.533 34.133-17.067 68.267-25.6 102.4h-8.533zM605.867 622.933h-558.933c-4.267 0-17.067-4.267-17.067-8.533-4.267-17.067-8.533-29.867-12.8-51.2h102.4c-21.333-76.8-38.4-149.333-59.733-226.133h85.333c38.4 0 38.4 0 46.933 34.133 17.067 64 34.133 128 51.2 192h89.6c-4.267-17.067-8.533-25.6-8.533-38.4-12.8-51.2 8.533-76.8 59.733-76.8h59.733c12.8 0 25.6-12.8 25.6-25.6s-12.8-25.6-25.6-25.6h-132.267c-12.8 0-21.333-4.267-21.333-17.067-4.267-12.8-4.267-25.6-12.8-42.667h226.133c55.467 17.067 68.267 68.267 76.8 115.2 4.267 34.133-8.533 51.2-42.667 55.467h-81.067c-12.8 0-25.6 12.8-25.6 25.6s12.8 25.6 25.6 25.6h132.267c8.533 0 17.067 4.267 21.333 8.533 4.267 12.8 8.533 29.867 12.8 46.933-12.8 8.533-17.067 8.533-17.067 8.533z" />
<glyph unicode="&#xe96c;" glyph-name="icon-twitter" d="M352.233 94.89c328.925 0 507.898 270.879 507.898 507.898v24.186c33.86 24.186 62.883 58.046 87.068 91.905-33.86-14.511-67.72-24.186-101.58-29.023 38.697 24.186 62.883 58.046 77.394 96.743-33.86-19.349-72.557-33.86-111.254-43.534-33.86 33.86-77.394 58.046-130.602 58.046-96.743 0-178.974-82.231-178.974-178.974 0-14.511 0-29.023 4.837-38.697-149.951 9.674-280.553 77.394-367.622 188.648-19.349-29.023-24.186-58.046-24.186-91.905 0-62.883 33.86-116.091 77.394-149.951-29.023 0-58.046 9.674-82.231 24.186v0c0-87.068 62.883-159.625 145.114-174.137-14.511-4.837-29.023-4.837-48.371-4.837-9.674 0-24.186 0-33.86 4.837 24.186-72.557 87.068-120.928 164.462-125.765-62.883-48.371-140.277-77.394-222.508-77.394-14.511 0-29.023 0-43.534 4.837 82.231-58.046 178.974-87.068 280.553-87.068z" />
<glyph unicode="&#xe96d;" glyph-name="icon-upload-alt" horiz-adv-x="1075" d="M716.8 622.080c-15.36 0-25.6 5.12-35.84 15.36l-117.76 117.76-117.76-117.76c-20.48-20.48-51.2-20.48-71.68 0s-20.48 51.2 0 71.68l153.6 153.6c20.48 20.48 51.2 20.48 71.68 0l153.6-153.6c20.48-20.48 20.48-51.2 0-71.68-10.24-10.24-20.48-15.36-35.84-15.36zM563.2 217.6c-30.72 0-51.2 20.48-51.2 51.2v512c0 30.72 20.48 51.2 51.2 51.2s51.2-20.48 51.2-51.2v-512c0-30.72-20.48-51.2-51.2-51.2zM1013.76-12.8h-921.6c-30.72 0-51.2 20.48-51.2 51.2s20.48 51.2 51.2 51.2h921.6c30.72 0 51.2-20.48 51.2-51.2s-20.48-51.2-51.2-51.2z" />
<glyph unicode="&#xe96e;" glyph-name="icon-usb1" d="M875.52 832l-128-35.84 30.72-30.72-409.6-409.6-5.12 163.84c0 10.24 5.12 25.6 15.36 35.84 35.84 35.84 56.32 56.32 66.56 66.56 20.48-10.24 46.080-5.12 66.56 10.24 20.48 20.48 20.48 56.32 0 81.92-20.48 20.48-56.32 20.48-81.92 0-15.36-15.36-20.48-40.96-10.24-66.56l-61.44-66.56c-15.36-15.36-25.6-46.080-25.6-71.68v0l5.12-174.080c0-10.24-5.12-25.6-15.36-35.84l-46.080-46.080c-35.84 25.6-87.040 20.48-122.88-10.24-35.84-35.84-35.84-97.28 0-133.12s97.28-35.84 133.12 0c35.84 30.72 40.96 81.92 15.36 117.76l148.48 148.48c10.24 10.24 20.48 15.36 35.84 15.36l174.080-5.12c25.6 0 51.2 10.24 71.68 25.6l61.44 61.44 25.6-25.6 81.92 81.92-81.92 81.92-81.92-81.92 25.6-25.6c0 0-15.36-15.36-66.56-66.56-10.24-10.24-20.48-15.36-35.84-15.36l-163.84 5.12 307.2 307.2 35.84-30.72 35.84 128z" />
<glyph unicode="&#xe96f;" glyph-name="icon-used-car" d="M76.8 499.2h870.4v-102.4h-870.4v102.4zM1024 89.6h-1024v286.72l153.6 363.52c5.12 5.12 46.080 66.56 128 66.56v-102.4c-20.48 0-35.84-15.36-40.96-20.48l-138.24-327.68v-163.84h819.2v163.84l-138.24 332.8c-5.12 5.12-20.48 20.48-40.96 20.48v102.4c81.92 0 122.88-61.44 128-66.56l5.12-10.24 148.48-358.4v-286.72zM844.8 294.4c0-42.415-34.385-76.8-76.8-76.8s-76.8 34.385-76.8 76.8c0 42.415 34.385 76.8 76.8 76.8s76.8-34.385 76.8-76.8zM332.8 294.4c0-42.415-34.385-76.8-76.8-76.8s-76.8 34.385-76.8 76.8c0 42.415 34.385 76.8 76.8 76.8s76.8-34.385 76.8-76.8zM1024 499.2c0-28.277-22.923-51.2-51.2-51.2s-51.2 22.923-51.2 51.2c0 28.277 22.923 51.2 51.2 51.2s51.2-22.923 51.2-51.2zM102.4 499.2c0-28.277-22.923-51.2-51.2-51.2s-51.2 22.923-51.2 51.2c0 28.277 22.923 51.2 51.2 51.2s51.2-22.923 51.2-51.2zM204.8 33.28c0-46.080-46.080-87.040-102.4-87.040v0c-56.32 0-102.4 40.96-102.4 87.040v76.8h204.8v-76.8zM1024 33.28c0-46.080-46.080-87.040-102.4-87.040v0c-56.32 0-102.4 40.96-102.4 87.040v76.8h204.8v-76.8zM512 586.24c-30.72 0-51.2 20.48-51.2 51.2v235.52c0 30.72 20.48 51.2 51.2 51.2s51.2-20.48 51.2-51.2v-235.52c0-30.72-20.48-51.2-51.2-51.2zM629.76 704h-235.52c-30.72 0-51.2 20.48-51.2 51.2s20.48 51.2 51.2 51.2h235.52c30.72 0 51.2-20.48 51.2-51.2s-20.48-51.2-51.2-51.2z" />
<glyph unicode="&#xe970;" glyph-name="icon-user" d="M870.4-12.8h-716.8v163.84c0 117.76 92.16 220.16 215.040 245.76l20.48 5.12 15.36-10.24c20.48-15.36 61.44-30.72 107.52-30.72 30.72 0 71.68 10.24 112.64 30.72l15.36 10.24 15.36-5.12c122.88-25.6 215.040-133.12 215.040-245.76v-163.84zM256 89.6h512v61.44c0 61.44-51.2 117.76-117.76 138.24-46.080-20.48-97.28-30.72-138.24-30.72-56.32 0-107.52 15.36-138.24 30.72-71.68-20.48-117.76-76.8-117.76-138.24v-61.44zM512 448c-112.64 0-204.8 92.16-204.8 204.8s92.16 204.8 204.8 204.8c112.64 0 204.8-92.16 204.8-204.8s-92.16-204.8-204.8-204.8zM512 755.2c-56.32 0-102.4-46.080-102.4-102.4s46.080-102.4 102.4-102.4c56.32 0 102.4 46.080 102.4 102.4 0 51.2-51.2 102.4-102.4 102.4z" />
<glyph unicode="&#xe971;" glyph-name="icon-volume-down" d="M614.4-33.28l-327.68 327.68h-184.32c-61.44 0-102.4 40.96-102.4 102.4v102.4c0 61.44 40.96 102.4 102.4 102.4h184.32l327.68 327.68v-962.56zM102.4 499.2v-102.4h225.28l184.32-184.32v471.040l-184.32-184.32h-225.28zM691.2 248.32v102.4c56.32 0 102.4 46.080 102.4 102.4s-46.080 102.4-102.4 102.4v102.4c112.64 0 204.8-92.16 204.8-204.8s-92.16-204.8-204.8-204.8z" />
<glyph unicode="&#xe972;" glyph-name="icon-volume-off" d="M819.2-33.28l-327.68 327.68h-184.32c-61.44 0-102.4 40.96-102.4 102.4v102.4c0 61.44 40.96 102.4 102.4 102.4h184.32l327.68 327.68v-962.56zM307.2 499.2v-102.4h225.28l184.32-184.32v471.040l-184.32-184.32h-225.28z" />
<glyph unicode="&#xe973;" glyph-name="icon-volume-up" d="M614.4-33.28l-327.68 327.68h-184.32c-61.44 0-102.4 40.96-102.4 102.4v102.4c0 61.44 40.96 102.4 102.4 102.4h184.32l327.68 327.68v-962.56zM102.4 499.2v-102.4h225.28l184.32-184.32v471.040l-184.32-184.32h-225.28zM675.84 325.12v102.4c10.24 0 25.6 15.36 25.6 25.6s-15.36 25.6-25.6 25.6v102.4c71.68 0 128-56.32 128-128s-56.32-128-128-128zM691.2 145.92v102.4c112.64 0 204.8 92.16 204.8 204.8s-92.16 204.8-204.8 204.8v102.4c174.080 0 307.2-133.12 307.2-307.2s-133.12-307.2-307.2-307.2z" />
<glyph unicode="&#xe974;" glyph-name="icon-web-chat" d="M102.4-28.16v814.080c0 61.44 56.32 117.76 117.76 117.76h588.8c61.44 0 117.76-56.32 117.76-117.76v-481.28c-10.24-66.56-56.32-112.64-117.76-112.64h-450.56l-256-220.16zM220.16 801.28c-5.12 0-15.36-10.24-15.36-15.36v-588.8l112.64 97.28h491.52c5.12 0 15.36 10.24 15.36 20.48v471.040c0 5.12-10.24 15.36-15.36 15.36h-588.8z" />
<glyph unicode="&#xe975;" glyph-name="icon-windows" d="M102.4 693.76l332.8 46.080v-322.56h-332.8v276.48zM435.2 381.44v-322.56l-332.8 46.080v281.6l332.8-5.12zM476.16 744.96l445.44 66.56v-389.12l-445.44-5.12v327.68zM921.6 376.32v-389.12l-445.44 61.44v327.68h445.44z" />
<glyph unicode="&#xe976;" glyph-name="icon-youtube" d="M51.2 447.328v-72.576c0-74.592 9.216-149.184 9.216-149.184s8.986-63.36 36.634-91.411c35.021-36.691 81.101-35.539 101.606-39.398 73.728-7.085 313.344-9.216 313.344-9.216s193.651 0.23 322.56 9.562c18.086 2.189 57.37 2.304 92.39 39.053 27.648 27.994 36.634 91.469 36.634 91.469s9.216 74.534 9.216 149.184v72.461c0 74.65-9.216 149.184-9.216 149.184s-8.986 63.475-36.634 91.469c-35.021 36.749-74.304 36.864-92.39 39.053-128.909 9.331-322.56 9.562-322.56 9.562s-239.616-2.074-313.344-9.216c-20.506-3.859-66.586-2.707-101.606-39.398-27.648-28.051-36.634-91.411-36.634-91.411s-9.216-74.65-9.216-149.184zM416.845 290.080v258.912l249.005-129.888-249.005-129.024z" />
<glyph unicode="&#xe977;" glyph-name="icon-price-alt" d="M952.32 652.8h-133.12v133.12c0 40.96-30.72 71.68-71.68 71.68h-675.84c-40.96 0-71.68-30.72-71.68-71.68v-419.84c0-40.96 30.72-71.68 71.68-71.68h117.76c5.12 0 10.24 0 15.36 5.12v-138.24c0-40.96 30.72-71.68 71.68-71.68h92.16c20.48-61.44 76.8-102.4 143.36-102.4s122.88 40.96 143.36 102.4h296.96c40.96 0 71.68 30.72 71.68 71.68v419.84c0 40.96-30.72 71.68-71.68 71.68zM204.8 581.12v-189.44c-5.12 5.12-10.24 5.12-15.36 5.12h-87.040v358.4h614.4v-102.4h-440.32c-40.96 0-71.68-30.72-71.68-71.68zM512 89.6c-30.72 0-51.2 25.6-51.2 51.2 0 30.72 25.6 51.2 51.2 51.2 30.72 0 51.2-25.6 51.2-51.2 0-30.72-20.48-51.2-51.2-51.2zM921.6 192h-266.24c-20.48 61.44-76.8 102.4-143.36 102.4s-122.88-40.96-143.36-102.4h-61.44v358.4h614.4v-358.4z" />
<glyph unicode="&#xe978;" glyph-name="filter" d="M306.916 960c-50.062 0-92.843-31.289-110.478-75.662h-196.437v-84.366h194.219c16.243-47.643 60.503-81.343 112.669-81.579h0.028c52.338 0 96.597 34.133 112.697 81.579h604.388v84.366h-606.549c-17.807 44.558-60.537 75.498-110.515 75.662h-0.021zM512 570.311c-51.2 0-94.663-32.711-111.559-78.62h-400.441v-84.423h400.498c17.086-46.003 60.495-78.24 111.469-78.507h0.033c51.2 0 94.663 32.654 111.559 78.507h400.441v84.423h-400.441c-17.057 46.068-60.503 78.36-111.527 78.62h-0.032zM717.084 177.607c-51.2 0-94.663-32.711-111.616-78.62h-605.468v-84.423h605.468c17.081-46.062 60.551-78.338 111.588-78.563h0.028c51.143 0 94.606 32.711 111.559 78.564h195.356v84.423h-195.356c-17.029 46.088-60.492 78.395-111.532 78.62h-0.028z" />
<glyph unicode="&#xe979;" glyph-name="star-alt" horiz-adv-x="1067" d="M866.133-42.667l-332.8 238.933-332.8-238.933 145.067 384-311.467 226.133h379.733l119.467 375.467 119.467-375.467h379.733l-311.467-226.133 145.067-384zM298.667 482.133l149.333-110.933-64-179.2 149.333 110.933 149.333-110.933-68.267 179.2 149.333 110.933h-179.2l-51.2 179.2-55.467-179.2h-179.2z" />
<glyph unicode="&#xe97a;" glyph-name="transport" horiz-adv-x="1252" d="M967.111 618.667h-341.333v170.667c0 96.711 73.956 170.667 170.667 170.667s170.667-73.956 170.667-170.667v-170.667zM739.556 732.444h113.778v56.889c0 34.133-22.756 56.889-56.889 56.889s-56.889-22.756-56.889-56.889v-56.889zM1080.889 732.444h-568.889c-73.956 0-136.533-45.511-159.289-113.778h728.178c34.133 0 56.889-22.756 56.889-56.889v-455.111c0-34.133-22.756-56.889-56.889-56.889h-728.178c22.756-68.267 85.333-113.778 159.289-113.778h568.889c96.711 0 170.667 73.956 170.667 170.667v455.111c0 96.711-73.956 170.667-170.667 170.667zM568.889 106.667h-512c-34.133 0-56.889 22.756-56.889 56.889s22.756 56.889 56.889 56.889h512c34.133 0 56.889-22.756 56.889-56.889s-22.756-56.889-56.889-56.889zM568.889 277.333h-398.222c-34.133 0-56.889 22.756-56.889 56.889s22.756 56.889 56.889 56.889h398.222c34.133 0 56.889-22.756 56.889-56.889s-22.756-56.889-56.889-56.889zM568.889 448h-284.444c-34.133 0-56.889 22.756-56.889 56.889s22.756 56.889 56.889 56.889h284.444c34.133 0 56.889-22.756 56.889-56.889s-22.756-56.889-56.889-56.889z" />
<glyph unicode="&#xe97b;" glyph-name="cone" horiz-adv-x="1084" d="M975.812-64h-861.365c-60.235 0-114.447 54.212-114.447 120.471v60.235c0 66.259 48.188 120.471 114.447 120.471h24.094l204.8 644.518c18.071 48.188 60.235 78.306 108.424 78.306h174.682c54.212 0 96.376-36.141 108.424-84.329l210.824-638.494h24.094c60.235 0 114.447-54.212 114.447-120.471v-60.235c0-30.118-6.024-60.235-30.118-84.329-18.071-24.094-48.188-36.141-78.306-36.141zM120.471 56.471h843.294v60.235h-843.294v-60.235zM265.035 237.176h560.188l-42.165 120.471h-481.882l-36.141-120.471zM343.341 478.118h403.576l-42.165 120.471h-325.271l-36.141-120.471zM415.624 719.059h246.965l-42.165 120.471h-162.635l-42.165-120.471zM620.424 845.553c0 0 0 0 0 0v0z" />
<glyph unicode="&#xe97c;" glyph-name="insurance-alt" horiz-adv-x="922" d="M460.8-53.76l-25.6 15.36c-20.48 10.24-209.92 128-266.24 168.96-92.16 71.68-143.36 143.36-143.36 220.16v583.68h870.4v-583.68c0-71.68-46.080-143.36-143.36-220.16-56.32-46.080-250.88-158.72-271.36-168.96l-10.24-5.12-10.24-10.24zM128 832v-481.28c0-40.96 35.84-87.040 102.4-138.24 35.84-30.72 158.72-107.52 230.4-148.48 71.68 40.96 194.56 117.76 230.4 148.48 66.56 51.2 102.4 102.4 102.4 143.36v476.16h-665.6zM409.6 320c-15.36 0-25.6 5.12-35.84 15.36l-117.76 112.64c-20.48 20.48-20.48 51.2 0 71.68s51.2 20.48 71.68 0l81.92-76.8 194.56 194.56c20.48 20.48 51.2 20.48 71.68 0s20.48-51.2 0-71.68l-235.52-230.4c-5.12-15.36-15.36-15.36-30.72-15.36z" />
<glyph unicode="&#xe97d;" glyph-name="exchange" d="M318.578 408.178c-11.378 0-28.444 0-39.822 11.378l-68.267 62.578-142.222 136.533c-5.689 11.378-17.067 28.444-17.067 39.822 0 17.067 5.689 28.444 17.067 39.822l210.489 204.8c22.756 22.756 56.889 22.756 79.644 0s22.756-56.889 0-79.644l-164.978-164.978 164.978-159.289c22.756-22.756 22.756-56.889 5.689-79.644-17.067-5.689-28.444-11.378-45.511-11.378zM699.733 601.6h-534.756c-34.133 0-56.889 22.756-56.889 56.889s22.756 56.889 56.889 56.889h534.756c34.133 0 56.889-22.756 56.889-56.889s-28.444-56.889-56.889-56.889zM967.111 658.489c0-31.419-25.47-56.889-56.889-56.889s-56.889 25.47-56.889 56.889c0 31.419 25.47 56.889 56.889 56.889s56.889-25.47 56.889-56.889zM910.222 573.156c-45.511 0-85.333 39.822-85.333 85.333s39.822 85.333 85.333 85.333 85.333-39.822 85.333-85.333-39.822-85.333-85.333-85.333zM910.222 686.933c-17.067 0-28.444-11.378-28.444-28.444s11.378-28.444 28.444-28.444 28.444 11.378 28.444 28.444-11.378 28.444-28.444 28.444zM170.667 231.822c0-31.419-25.47-56.889-56.889-56.889s-56.889 25.47-56.889 56.889c0 31.419 25.47 56.889 56.889 56.889s56.889-25.47 56.889-56.889zM113.778 146.489c-45.511 0-85.333 39.822-85.333 85.333s39.822 85.333 85.333 85.333 85.333-39.822 85.333-85.333-39.822-85.333-85.333-85.333zM113.778 260.267c-17.067 0-28.444-11.378-28.444-28.444s11.378-28.444 28.444-28.444 28.444 11.378 28.444 28.444-11.378 28.444-28.444 28.444zM705.422-24.178c-17.067 0-28.444 5.689-39.822 17.067-22.756 22.756-17.067 56.889 5.689 79.644l108.089 96.711h-466.489c-34.133 0-56.889 22.756-56.889 56.889s22.756 56.889 56.889 56.889h460.8l-108.089 108.089c-22.756 22.756-22.756 56.889 0 79.644s56.889 22.756 79.644 0l210.489-204.8c11.378-11.378 17.067-22.756 17.067-39.822s-5.689-28.444-17.067-39.822l-210.489-199.111c-11.378-5.689-28.444-11.378-39.822-11.378z" />
<glyph unicode="&#xe97e;" glyph-name="icon-info-sign-thin" d="M512-38.4c-266.24 0-486.4 220.16-486.4 486.4s220.16 486.4 486.4 486.4 486.4-220.16 486.4-486.4-220.16-486.4-486.4-486.4zM512 883.2c-240.64 0-435.2-194.56-435.2-435.2s194.56-435.2 435.2-435.2c240.64 0 435.2 194.56 435.2 435.2s-194.56 435.2-435.2 435.2zM512 550.4c-30.72 0-51.2-20.48-51.2-51.2v-204.8c0-30.72 20.48-51.2 51.2-51.2s51.2 20.48 51.2 51.2v204.8c0 30.72-20.48 51.2-51.2 51.2zM563.2 652.8c0 28.277-22.923 51.2-51.2 51.2s-51.2-22.923-51.2-51.2c0-28.277 22.923-51.2 51.2-51.2s51.2 22.923 51.2 51.2z" />
<glyph unicode="&#xe97f;" glyph-name="icon-cross" d="M694.857 256c-1.829 0-5.486 0-7.314 1.829l-175.543 177.371-177.371-177.371c-3.657-3.657-9.143-3.657-12.8 0s-3.657 9.143 0 12.8l177.371 177.371-175.543 175.543c-3.657 3.657-3.657 9.143 0 12.8s9.143 3.657 12.8 0l175.543-175.543 175.543 175.543c3.657 3.657 9.143 3.657 12.8 0s3.657-9.143 0-12.8l-175.543-175.543 177.371-177.371c3.657-3.657 3.657-9.143 0-12.8-1.829-1.829-3.657-1.829-7.314-1.829z" />
<glyph unicode="&#xe980;" glyph-name="icon-horizontal-ellipsis" d="M512-64c-284.444 0-512 227.556-512 512s227.556 512 512 512c284.444 0 512-227.556 512-512s-227.556-512-512-512zM512 903.111c-250.311 0-455.111-204.8-455.111-455.111s204.8-455.111 455.111-455.111 455.111 204.8 455.111 455.111-204.8 455.111-455.111 455.111zM284.444 504.889v0c34.133 0 56.889-22.756 56.889-56.889v0c0-34.133-22.756-56.889-56.889-56.889v0c-34.133 0-56.889 22.756-56.889 56.889v0c0 34.133 22.756 56.889 56.889 56.889zM512 504.889v0c34.133 0 56.889-22.756 56.889-56.889v0c0-34.133-22.756-56.889-56.889-56.889v0c-34.133 0-56.889 22.756-56.889 56.889v0c0 34.133 22.756 56.889 56.889 56.889zM739.556 504.889v0c34.133 0 56.889-22.756 56.889-56.889v0c0-34.133-22.756-56.889-56.889-56.889v0c-34.133 0-56.889 22.756-56.889 56.889v0c0 34.133 22.756 56.889 56.889 56.889z" />
<glyph unicode="&#xe981;" glyph-name="icon-quote-right-thin" horiz-adv-x="1629" d="M1298.618 308.364c37.236 0 69.818 4.655 102.4 13.964l-153.6-293.236c-9.309-18.618-4.655-46.545 18.618-60.509 23.273-9.309 51.2-4.655 65.164 18.618l251.345 484.073c4.655 4.655 9.309 13.964 9.309 23.273l4.655 4.655c18.618 41.891 27.927 83.782 27.927 130.327 0 181.527-144.291 325.818-325.818 325.818s-325.818-144.291-325.818-325.818c0-176.873 144.291-321.164 325.818-321.164zM367.709 308.364c37.236 0 69.818 4.655 102.4 13.964l-153.6-293.236c-9.309-18.618-4.655-46.545 18.618-60.509s51.2-4.655 60.509 18.618l251.345 484.073c4.655 4.655 9.309 13.964 9.309 23.273l4.655 9.309c18.618 41.891 27.927 83.782 27.927 130.327 0 181.527-144.291 325.818-325.818 325.818s-325.818-144.291-325.818-325.818c4.655-181.527 148.945-325.818 330.473-325.818z" />
<glyph unicode="&#xe982;" glyph-name="icon-quote-left-thin" horiz-adv-x="1629" d="M363.055 615.564c-37.236 0-69.818-4.655-102.4-13.964l153.6 293.236c9.309 18.618 4.655 46.545-18.618 60.509-23.273 9.309-51.2 4.655-65.164-18.618l-251.345-484.073c-4.655-4.655-9.309-13.964-9.309-23.273l-4.655-4.655c0 0 0 0 0 0-18.618-41.891-27.927-83.782-27.927-130.327 0-181.527 144.291-325.818 325.818-325.818s325.818 144.291 325.818 325.818c0 176.873-144.291 321.164-325.818 321.164zM1293.964 615.564c-37.236 0-69.818-4.655-102.4-13.964l153.6 293.236c9.309 18.618 4.655 46.545-18.618 60.509s-51.2 4.655-60.509-18.618l-251.345-484.073c-4.655-4.655-9.309-13.964-9.309-23.273l-4.655-9.309c0 0 0 0 0 0-18.618-41.891-27.927-83.782-27.927-130.327 0-181.527 144.291-325.818 325.818-325.818s325.818 144.291 325.818 325.818c-4.655 181.527-148.945 325.818-330.473 325.818z" />
<glyph unicode="&#xe983;" glyph-name="icon-phone-thin" d="M761.6-57.6c-134.4 0-332.8 108.8-486.4 268.8-160 166.4-262.4 352-262.4 480 0 32 6.4 76.8 32 108.8l140.8 140.8c12.8 12.8 32 12.8 44.8 0l224-217.6c12.8-12.8 12.8-32 0-44.8l-102.4-121.6c38.4-64 76.8-115.2 115.2-153.6 44.8-38.4 96-76.8 153.6-115.2l115.2 102.4c12.8 12.8 32 12.8 44.8 0l224-224c12.8-12.8 12.8-32 0-44.8l-140.8-140.8c-19.2-25.6-64-38.4-102.4-38.4zM211.2 870.4l-115.2-121.6c-12.8-6.4-19.2-19.2-19.2-57.6 0-108.8 96-281.6 249.6-441.6 160-166.4 339.2-243.2 435.2-243.2 25.6 0 44.8 6.4 57.6 25.6l115.2 115.2-179.2 179.2-108.8-102.4c-12.8-6.4-25.6-12.8-38.4-6.4-76.8 44.8-140.8 89.6-185.6 140.8s-89.6 108.8-134.4 185.6c-6.4 12.8-6.4 32 0 38.4l102.4 108.8-179.2 179.2z" />
<glyph unicode="&#xe984;" glyph-name="icon-car-side-view" horiz-adv-x="2308" d="M2215.869 263.344c16.787 33.574 41.967 92.328 16.787 151.082-16.787 58.754-50.361 117.508-50.361 125.902 0 0 0 8.393-8.393 8.393-8.393 8.393-134.295 109.115-495.213 117.508-58.754 41.967-327.344 235.016-537.18 235.016s-881.311-58.754-906.492-67.148c-16.787 8.393-33.574-16.787-33.574-41.967s25.18-33.574 50.361-33.574c0 0 8.393 0 8.393 0l-92.328-50.361h-8.393c-16.787 0-33.574 0-50.361-16.787-16.787-8.393-16.787-25.18-16.787-50.361v-41.967l-8.393-167.869c-25.18-25.18-33.574-50.361-33.574-83.934v-58.754c0-25.18 8.393-41.967 16.787-58.754l16.787-25.18c16.787-25.18 41.967-50.361 75.541-50.361l92.328-16.787c0-16.787 16.787-50.361 41.967-75.541 41.967-41.967 92.328-67.148 151.082-67.148 83.934 0 159.475 58.754 193.049 134.295h990.426c33.574-75.541 109.115-134.295 193.049-134.295s159.475 50.361 193.049 125.902l193.049 16.787c25.18 0 41.967 16.787 41.967 41.967v41.967c0 8.393 0 16.787-8.393 25.18l-25.18 16.787zM1519.213 674.623c16.787-8.393 33.574-16.787 41.967-25.18-16.787 0-33.574 0-50.361 0l8.393 25.18zM1435.279 724.984v-83.934c-41.967 0-125.902 8.393-218.23 16.787-41.967 0-83.934 8.393-117.508 8.393l-16.787 142.689c25.18 0 50.361 0 75.541 0 75.541 8.393 184.656-33.574 276.984-83.934zM906.492 691.41c-41.967 8.393-75.541 8.393-100.721 16.787h-25.18l-8.393 92.328c41.967 0 83.934 8.393 125.902 8.393l8.393-117.508zM688.262 758.557l-33.574 33.574c8.393 0 16.787 0 33.574 0v-33.574zM570.754 221.377c0-75.541-58.754-134.295-125.902-134.295-33.574 0-67.148 16.787-92.328 41.967-25.18 16.787-41.967 50.361-41.967 92.328 0 75.541 58.754 134.295 125.902 134.295 75.541 0 134.295-58.754 134.295-134.295v0zM1821.377 78.689c-67.148 0-125.902 58.754-125.902 134.295s58.754 134.295 125.902 134.295c67.148 0 125.902-58.754 125.902-134.295s-58.754-134.295-125.902-134.295zM2131.934 238.164l16.787-25.18-117.508-8.393c0 0 0 8.393 0 8.393 0 125.902-92.328 218.23-209.836 218.23s-209.836-100.721-209.836-218.23c0 0 0 0 0 0h-956.852c0 0 0 0 0 0 0 125.902-92.328 218.23-209.836 218.23-109.115 0-201.443-83.934-209.836-201.443l-75.541 25.18c-8.393 0-16.787 8.393-16.787 8.393l-8.393 25.18c0 8.393-8.393 8.393-8.393 16.787v50.361c0 8.393 8.393 16.787 8.393 25.18 8.393 8.393 16.787 25.18 25.18 41.967l16.787 184.656v16.787c16.787 0 25.18 0 41.967 8.393l243.41 142.689c25.18 0 50.361 0 67.148 8.393l142.689-117.508c25.18-25.18 58.754-33.574 92.328-41.967h33.574c33.574-8.393 83.934-8.393 151.082-16.787 0 0 0 0 8.393 0 25.18 0 41.967 16.787 41.967 33.574 0 0 0 0 0 8.393 0 0 0 0 0 0l-16.787 167.869c0 0 8.393 0 8.393 0l25.18-184.656c0-25.18 25.18-41.967 41.967-33.574 50.361-8.393 100.721-8.393 151.082-16.787 100.721-8.393 193.049-16.787 235.016-16.787 8.393 0 16.787 0 16.787 0s8.393 0 8.393 0c0 0 0 0 0 0 109.115 0 184.656 16.787 209.836 25.18 285.377-8.393 411.279-75.541 436.459-92.328 8.393-16.787 33.574-67.148 41.967-109.115 8.393-25.18-8.393-75.541-25.18-100.721-8.393-16.787-8.393-33.574 0-50.361z" />
<glyph unicode="&#xe985;" glyph-name="icon-weather-conditions-rain" horiz-adv-x="1205" d="M662.588-3.765c0-33.267-26.968-60.235-60.235-60.235s-60.235 26.968-60.235 60.235c0 33.267 26.968 60.235 60.235 60.235s60.235-26.968 60.235-60.235zM361.412-3.765c0-33.267-26.968-60.235-60.235-60.235s-60.235 26.968-60.235 60.235c0 33.267 26.968 60.235 60.235 60.235s60.235-26.968 60.235-60.235zM963.765-3.765c0-33.267-26.968-60.235-60.235-60.235s-60.235 26.968-60.235 60.235c0 33.267 26.968 60.235 60.235 60.235s60.235-26.968 60.235-60.235zM927.624 146.824h-614.4c-156.612 0-283.106 120.471-283.106 265.035 0 126.494 96.376 234.918 234.918 252.988 6.024 66.259 42.165 126.494 96.376 174.682 66.259 60.235 156.612 90.353 240.941 90.353s180.706-36.141 240.941-90.353c66.259-60.235 102.4-150.588 102.4-234.918 126.494-12.047 228.894-108.424 228.894-228.894 0-126.494-108.424-228.894-246.965-228.894zM602.353 869.647c-72.282 0-150.588-30.118-204.8-78.306-48.188-42.165-72.282-90.353-78.306-150.588v-24.094h-24.094c-120.471-18.071-204.8-102.4-204.8-204.8 0-114.447 96.376-204.8 222.871-204.8h614.4c102.4 0 186.729 78.306 186.729 168.659s-84.329 168.659-186.729 168.659h-48.188l6.024 36.141c12.047 78.306-18.071 156.612-78.306 216.847-54.212 42.165-132.518 72.282-204.8 72.282z" />
<glyph unicode="&#xe986;" glyph-name="icon-corporate-person" horiz-adv-x="880" d="M810.667-26.667h-741.333c-16 0-26.667 10.667-26.667 26.667 0 154.667 21.333 368 213.333 448 16 5.333 26.667 0 37.333-16 5.333-16 0-26.667-16-37.333-117.333-48-176-165.333-181.333-373.333h96v74.667c0 16 10.667 26.667 26.667 26.667s26.667-10.667 26.667-26.667v-74.667h160v149.333c0 16 10.667 26.667 26.667 26.667s26.667-10.667 26.667-26.667v-149.333h181.333v74.667c0 16 10.667 26.667 26.667 26.667s26.667-10.667 26.667-26.667v-74.667h85.333c-5.333 202.667-64 320-186.667 373.333-5.333 10.667-10.667 26.667-5.333 37.333 5.333 16 21.333 21.333 37.333 16 197.333-80 218.667-293.333 218.667-448-5.333-10.667-16-26.667-32-26.667zM442.667 464c-42.667 0-69.333 21.333-74.667 21.333-10.667 10.667-10.667 26.667 0 37.333s26.667 10.667 37.333 0c0 0 10.667-10.667 37.333-10.667 21.333 0 32 10.667 37.333 10.667 5.333 16 21.333 10.667 32 0s10.667-26.667 0-37.333c-5.333 0-26.667-21.333-69.333-21.333zM554.667 592h-26.667c-16 0-26.667 10.667-26.667 26.667s10.667 26.667 26.667 26.667h26.667c16 0 26.667-10.667 26.667-26.667s-10.667-26.667-26.667-26.667zM352 592h-21.333c-16 0-26.667 10.667-26.667 26.667s10.667 26.667 26.667 26.667h26.667c16 0 26.667-10.667 26.667-26.667s-16-26.667-32-26.667zM437.333 698.667c-85.333 0-170.667 32-224 74.667-10.667 10.667-10.667 32 0 42.667s26.667 10.667 37.333 0c32-32 101.333-64 181.333-64 85.333 0 154.667 32 186.667 64 10.667 10.667 26.667 10.667 37.333 0s10.667-26.667 0-37.333c-37.333-37.333-122.667-80-218.667-80zM442.667 341.333c-160 0-288 133.333-288 293.333s128 293.333 288 293.333 288-133.333 288-293.333c0-165.333-133.333-293.333-288-293.333zM442.667 874.667c-128 0-234.667-106.667-234.667-240s106.667-240 234.667-240 234.667 106.667 234.667 240c0 133.333-106.667 240-234.667 240zM437.333 154.667c0 0 0 0 0 0-10.667 0-21.333 5.333-21.333 16l-106.667 208c-10.667 10.667-5.333 26.667 10.667 32 10.667 5.333 26.667 0 37.333-10.667l85.333-165.333 90.667 165.333c0 16 16 21.333 32 10.667 10.667-5.333 16-21.333 10.667-37.333l-112-208c-5.333-5.333-16-10.667-26.667-10.667z" />
<glyph unicode="&#xe987;" glyph-name="icon-client" horiz-adv-x="895" d="M818.171-33.126h-746.131c-15.437 0-25.729 10.291-25.729 25.729 0 154.372 20.583 365.347 216.121 447.678 15.437 5.146 25.729 0 36.020-15.437 5.146-15.437 0-25.729-15.437-36.020-118.352-51.457-180.101-169.809-185.246-375.638h102.915v77.186c0 15.437 10.291 25.729 25.729 25.729s25.729-10.291 25.729-25.729v-77.186h401.367v77.186c0 15.437 10.291 25.729 25.729 25.729s25.729-10.291 25.729-25.729v-77.186h87.477c-5.146 205.829-61.749 324.181-185.246 375.638-15.437 5.146-20.583 20.583-15.437 36.020s20.583 20.583 36.020 15.437c195.538-82.332 216.121-293.307 216.121-447.678 0-10.291-15.437-25.729-25.729-25.729zM442.533 450.573c-36.020 0-61.749 25.729-72.040 41.166-10.291 10.291-5.146 25.729 5.146 30.874 10.291 10.291 30.874 5.146 36.020-5.146 0 0 10.291-15.437 30.874-15.437s30.874 15.437 30.874 15.437c10.291 10.291 25.729 15.437 36.020 5.146 10.291-5.146 15.437-20.583 5.146-36.020-5.146-15.437-36.020-36.020-72.040-36.020zM555.739 594.653h-25.729c-15.437 0-25.729 10.291-25.729 25.729s10.291 25.729 25.729 25.729h25.729c15.437 0 25.729-10.291 25.729-25.729s-15.437-25.729-25.729-25.729zM355.055 594.653h-25.729c-15.437 0-25.729 10.291-25.729 25.729s10.291 25.729 25.729 25.729h25.729c15.437 0 25.729-10.291 25.729-25.729s-10.291-25.729-25.729-25.729zM442.533 671.839c-149.226 5.146-205.829 72.040-231.558 113.206-5.146 10.291 0 25.729 10.291 36.020 10.291 5.146 25.729 0 36.020-10.291 15.437-25.729 51.457-66.894 144.080-82.332 0 15.437-10.291 30.874-10.291 36.020-5.146 10.291 0 20.583 5.146 25.729s20.583 10.291 30.874 5.146c0 0 118.352-56.603 216.121-5.146 10.291 5.146 25.729 0 36.020-10.291 5.146-10.291 0-25.729-10.291-36.020-77.186-36.020-154.372-25.729-205.829-15.437 0 0 5.146-5.146 5.146-5.146 5.146-5.146 10.291-20.583 5.146-30.874s-15.437-20.583-30.874-20.583zM442.533 337.367c-159.518 0-288.161 128.643-288.161 293.307s128.643 293.307 288.161 293.307c159.518 0 288.161-133.789 288.161-293.307s-128.643-293.307-288.161-293.307zM442.533 872.523c-128.643 0-236.704-108.060-236.704-241.849s108.060-241.849 236.704-241.849c133.789 0 236.704 108.060 236.704 241.849s-102.915 241.849-236.704 241.849z" />
</font>
</defs>
</svg>
